<svg version="1.2" baseProfile="tiny" xmlns="http://www.w3.org/2000/svg" viewBox="0 0 34 169"><path fill="#7E2D22" d="M20 29.5v-2.281c.4-.072.793-.167 1.184-.267.277-.07.549-.152.82-.236.19-.059.381-.117.569-.183.269-.093.531-.196.793-.303.183-.074.366-.148.546-.229a17.61 17.61 0 0 0 2.5-1.381 16.62 16.62 0 0 0 1.153-.841 16.223 16.223 0 0 0 1.644-1.489c.148-.153.291-.311.434-.469.172-.192.344-.385.508-.585.139-.169.271-.345.403-.52.152-.201.305-.402.448-.61.129-.188.25-.381.371-.574.132-.208.264-.414.387-.627.117-.206.225-.418.335-.629.109-.211.222-.421.323-.638.105-.225.197-.457.292-.688.089-.213.181-.423.261-.641.09-.247.165-.5.244-.752.065-.21.138-.417.195-.631.074-.273.131-.553.19-.831.044-.201.097-.399.132-.604.058-.318.094-.643.133-.966.02-.171.051-.338.066-.511.046-.497.069-1.003.069-1.514V0h-7v10.5c0 .268-.012.534-.033.797-.007.088-.02.174-.029.262-.019.173-.037.345-.064.516-.016.105-.039.209-.059.313a10.92 10.92 0 0 1-.093.444c-.026.112-.059.222-.089.333a9.789 9.789 0 0 1-.237.743c-.046.124-.091.246-.142.368-.047.116-.098.23-.148.344a11.486 11.486 0 0 1-.342.682 7.95 7.95 0 0 1-.172.298c-.07.119-.143.236-.218.352a8.924 8.924 0 0 1-.176.256c-.085.122-.169.242-.259.36-.053.068-.109.134-.163.201-.103.127-.206.255-.315.378-.033.037-.068.071-.102.108a10.09 10.09 0 0 1-2.049 1.708l-.047.032c-.17.105-.344.203-.52.298-.043.023-.084.048-.127.07-.166.086-.334.166-.504.243-.039.018-.074.038-.113.055v-.003a9.867 9.867 0 0 1-1 .383V6.5a3.491 3.491 0 0 0-3-3.45 3.49 3.49 0 0 0-3 3.45v13.54a9.867 9.867 0 0 1-1-.383v.003c-.039-.017-.075-.037-.113-.055a9.337 9.337 0 0 1-.504-.243c-.043-.022-.085-.047-.128-.07a10.698 10.698 0 0 1-.519-.298l-.049-.032a10.079 10.079 0 0 1-2.047-1.708c-.033-.037-.068-.071-.102-.108-.109-.123-.212-.25-.315-.378-.054-.067-.11-.133-.163-.201a9.099 9.099 0 0 1-.259-.36 8.924 8.924 0 0 1-.176-.256 8.97 8.97 0 0 1-.217-.352 9.955 9.955 0 0 1-.514-.98 8.703 8.703 0 0 1-.29-.713 10.427 10.427 0 0 1-.119-.338c-.043-.133-.081-.268-.119-.403-.03-.11-.062-.22-.089-.332-.035-.146-.063-.295-.092-.444-.02-.104-.043-.208-.06-.313-.027-.17-.045-.343-.064-.516-.009-.088-.022-.174-.03-.262-.018-.264-.03-.529-.03-.798V0H0v10.5c0 .511.024 1.016.068 1.516.016.172.046.34.067.511.039.324.075.648.132.966.036.204.088.402.132.604.06.278.116.558.19.831.058.214.13.421.196.631.079.252.154.505.244.752.08.217.172.428.26.641.095.23.187.462.292.688.101.217.214.427.323.638.11.211.217.424.335.629.123.213.255.42.386.627.122.193.242.386.372.574.144.208.296.409.448.61.132.175.265.351.404.52.164.2.335.393.508.585.142.158.285.316.433.469.184.189.374.373.566.554.15.142.302.282.457.418a18.12 18.12 0 0 0 1.774 1.358 17.645 17.645 0 0 0 1.219.742c.172.095.347.186.522.275a15.298 15.298 0 0 0 1.304.593c.262.106.525.209.793.303.188.065.379.124.57.183a17.454 17.454 0 0 0 2.003.503v27.56c-.401.072-.793.167-1.184.267-.276.07-.548.152-.819.236-.191.059-.382.117-.57.183-.268.093-.531.196-.793.303-.183.074-.366.148-.545.229-.257.115-.509.237-.76.365-.175.089-.349.179-.521.274a17.858 17.858 0 0 0-1.22.742 17.685 17.685 0 0 0-1.153.841c-.211.168-.419.339-.622.517a16.39 16.39 0 0 0-.457.418c-.192.181-.382.364-.566.554-.145.152-.288.31-.43.468-.172.192-.344.385-.508.585-.139.169-.271.345-.404.52-.152.201-.305.402-.448.61-.129.188-.25.381-.372.574-.131.208-.264.414-.386.627-.118.206-.225.418-.335.629-.109.211-.222.421-.323.638-.104.225-.197.457-.292.687-.088.213-.181.424-.26.642-.09.247-.165.5-.244.752-.066.21-.138.418-.196.632-.074.273-.13.553-.19.831-.044.201-.096.399-.132.604-.057.318-.093.643-.132.966-.021.171-.051.338-.067.511A16.836 16.836 0 0 0 0 71.5v24c0 .51.024 1.016.068 1.516.03.34.082.672.131 1.006.021.141.032.283.057.424.166.945.41 1.863.726 2.748.021.057.047.111.068.17.142.381.291.76.458 1.129.044.096.097.188.142.281.155.326.313.65.488.963.057.104.124.199.183.301.175.299.351.598.543.885.067.1.144.195.213.293.196.279.394.559.605.824.077.096.161.186.239.281.217.26.435.52.666.766.084.09.175.174.261.262.236.242.474.482.724.709.092.084.19.16.284.242.254.221.51.439.777.645.1.078.205.148.306.223.271.199.542.396.825.578.108.07.221.135.331.201.284.176.569.348.864.506.118.064.24.121.36.182.293.15.589.297.892.428.13.059.264.107.395.16.3.123.602.242.91.348.143.049.29.09.435.135.303.096.607.186.917.264.374.094.749.184 1.132.252V139.784c-.401.072-.793.168-1.184.268-.276.07-.548.152-.819.236-.191.059-.382.117-.57.182-.268.094-.531.197-.793.303-.183.074-.366.148-.545.229a19.812 19.812 0 0 0-1.281.638 16.79 16.79 0 0 0-1.22.744 15.678 15.678 0 0 0-1.153.84c-.211.168-.419.34-.622.518-.155.135-.307.275-.457.418-.192.18-.382.363-.566.553a16.02 16.02 0 0 0-.433.469 15.92 15.92 0 0 0-.508.586c-.139.17-.271.344-.404.52-.152.201-.305.402-.448.609-.129.188-.25.381-.372.574-.131.207-.264.414-.386.627-.118.207-.225.418-.335.631-.109.211-.222.42-.323.637-.104.225-.197.457-.292.688-.088.213-.181.424-.26.641-.09.248-.165.5-.244.752-.066.211-.138.418-.196.633-.074.271-.13.553-.19.83-.044.201-.096.4-.132.604-.057.318-.093.643-.132.967-.021.17-.051.338-.067.51-.044.494-.068 1-.068 1.509V169h7v-12.5c0-.268.012-.533.033-.797.007-.088.021-.174.03-.262.019-.172.037-.346.064-.516.017-.105.04-.209.06-.314.029-.148.057-.297.092-.443.027-.111.059-.221.089-.332.038-.135.076-.27.119-.402.037-.115.078-.227.119-.34.045-.123.091-.246.141-.369.047-.115.098-.229.149-.344a10.14 10.14 0 0 1 .731-1.331c.057-.088.116-.172.176-.258.084-.121.169-.242.259-.359.052-.068.108-.133.163-.201.103-.127.206-.254.315-.377.033-.037.068-.072.102-.107a10.11 10.11 0 0 1 2.047-1.709c.017-.01.032-.021.049-.033.169-.104.343-.201.519-.297l.128-.07c.165-.086.333-.166.504-.242.038-.018.074-.039.113-.055v.002c.326-.143.657-.273 1-.383V160.5a3.489 3.489 0 0 0 3 3.449 3.49 3.49 0 0 0 3-3.449v-13.539c.343.109.674.24 1 .383v-.002c.039.016.074.037.113.055.17.076.338.156.504.242l.127.07a10.288 10.288 0 0 1 .567.33 10.095 10.095 0 0 1 2.049 1.709l.102.107c.109.123.213.25.315.377.054.068.11.133.163.201.09.117.174.238.259.359.06.086.119.17.176.258a11.378 11.378 0 0 1 .39.649 12.698 12.698 0 0 1 .342.682c.051.115.102.229.148.346.051.121.096.244.142.367.041.113.081.225.118.34.043.133.081.268.119.402.03.111.062.221.089.332.035.146.063.295.093.443.02.105.043.209.059.314.027.17.046.344.064.516.01.088.022.174.029.262.018.264.03.53.03.797V169h7v-12.5c0-.51-.023-1.016-.068-1.516-.016-.172-.047-.34-.066-.51-.039-.324-.075-.648-.133-.967-.035-.203-.088-.402-.132-.604-.06-.277-.116-.559-.19-.83-.058-.215-.13-.422-.195-.633-.08-.252-.154-.504-.244-.752-.08-.217-.173-.428-.261-.641-.095-.23-.188-.463-.292-.688-.102-.217-.214-.426-.323-.637-.11-.213-.218-.424-.335-.631-.123-.213-.255-.42-.387-.627-.121-.193-.242-.387-.371-.574a19.056 19.056 0 0 0-.448-.609 17.14 17.14 0 0 0-.403-.52 15.92 15.92 0 0 0-.508-.586c-.143-.158-.285-.316-.434-.469a17.324 17.324 0 0 0-.565-.553 16.248 16.248 0 0 0-1.558-1.303 16.62 16.62 0 0 0-1.173-.793 15.19 15.19 0 0 0-1.242-.697c-.251-.127-.504-.25-.76-.365-.18-.08-.363-.154-.546-.229a18.808 18.808 0 0 0-.793-.303c-.188-.064-.379-.123-.569-.182a17.216 17.216 0 0 0-2.004-.504v-27.558a16.763 16.763 0 0 0 2.004-.502c.19-.059.381-.117.569-.184.269-.092.531-.195.793-.301a15.507 15.507 0 0 0 1.305-.593 16.68 16.68 0 0 0 1.241-.697 17.01 17.01 0 0 0 1.174-.793c.162-.121.321-.244.479-.369.211-.168.42-.338.622-.516a20.212 20.212 0 0 0 1.022-.973c.148-.152.291-.311.434-.469.172-.191.344-.385.508-.584.139-.17.271-.346.403-.521.152-.199.305-.4.448-.609.129-.188.25-.381.371-.574.132-.207.264-.412.387-.627.117-.205.225-.418.335-.629.109-.211.222-.422.323-.639.105-.225.197-.457.292-.688.089-.213.181-.424.261-.641.09-.246.165-.5.244-.752.065-.211.138-.418.195-.631.074-.273.131-.553.19-.832.044-.201.097-.398.132-.602.058-.318.094-.643.133-.967.02-.172.051-.338.066-.512A16.41 16.41 0 0 0 34 95.5v-24c0-.511-.023-1.016-.068-1.514-.03-.34-.082-.673-.131-1.007-.021-.14-.033-.284-.057-.423a16.725 16.725 0 0 0-.727-2.748c-.021-.057-.047-.11-.067-.167a17.204 17.204 0 0 0-.46-1.133c-.042-.093-.093-.181-.137-.273a16.667 16.667 0 0 0-.492-.971c-.057-.103-.123-.2-.182-.301a17.544 17.544 0 0 0-.544-.883c-.067-.101-.144-.196-.213-.295a18.927 18.927 0 0 0-.604-.824c-.077-.096-.161-.186-.239-.28-.217-.261-.435-.52-.666-.767-.084-.09-.175-.173-.261-.261a17.317 17.317 0 0 0-.725-.709c-.092-.083-.189-.16-.283-.242-.254-.221-.511-.44-.777-.646-.1-.077-.205-.147-.307-.222a17.947 17.947 0 0 0-.824-.579c-.108-.07-.221-.133-.33-.201-.284-.175-.57-.348-.865-.507-.118-.063-.24-.12-.359-.181-.294-.149-.59-.296-.893-.429-.131-.057-.264-.106-.396-.16-.3-.123-.602-.242-.91-.347-.144-.049-.29-.09-.435-.135A16.614 16.614 0 0 0 20 54.782V29.5zm1 32.844v-.002l.023.011c.096.042.188.091.282.136.222.106.439.221.651.343.063.036.132.064.193.102.027.017.052.038.079.055.285.176.558.368.823.571a10.093 10.093 0 0 1 .992.862c.066.066.131.135.195.204.24.252.472.514.685.79.038.05.072.102.11.152.203.274.394.56.568.855.025.042.054.083.078.126.184.32.345.653.492.993.028.065.059.129.085.195.138.339.257.687.358 1.043.02.069.037.139.056.208.096.366.173.738.227 1.118l.019.163c.052.404.084.814.084 1.231v24c0 .256-.01.51-.029.76 0 .008-.002.016-.003.023a9.929 9.929 0 0 1-.182 1.24c-.015.068-.027.137-.043.205-.09.395-.202.779-.338 1.154-.021.059-.046.117-.067.176a9.873 9.873 0 0 1-.508 1.129l-.007.012c-.2.373-.426.729-.669 1.072-.02.027-.037.055-.057.082-.242.334-.506.65-.787.951l-.093.098a9.862 9.862 0 0 1-.918.852l-.037.029a10.1 10.1 0 0 1-2.214 1.352c-.018.008-.032.018-.049.025v-.004a9.867 9.867 0 0 1-1 .383V91.5a3.49 3.49 0 0 0-3-3.449c-.067.01-.139.008-.206.021A3.502 3.502 0 0 0 14 91.5v13.539a9.624 9.624 0 0 1-1-.381v.002a.485.485 0 0 1-.023-.012c-.096-.043-.188-.092-.282-.137a9.85 9.85 0 0 1-.652-.342c-.063-.037-.131-.064-.193-.102-.027-.018-.051-.039-.079-.055a10.673 10.673 0 0 1-.824-.57c-.083-.064-.165-.127-.245-.193-.26-.211-.51-.436-.748-.67-.066-.066-.129-.135-.194-.203a9.731 9.731 0 0 1-.685-.791c-.038-.049-.072-.102-.11-.152a9.668 9.668 0 0 1-.569-.854c-.025-.043-.053-.084-.078-.127a9.765 9.765 0 0 1-.492-.994c-.028-.064-.057-.127-.084-.193a9.823 9.823 0 0 1-.359-1.045c-.02-.068-.038-.137-.056-.205-.095-.367-.173-.74-.227-1.119l-.019-.164A10.196 10.196 0 0 1 7 95.5v-24c0-.256.01-.509.029-.76 0-.008.003-.015.003-.023.033-.421.098-.833.182-1.238.014-.069.027-.138.043-.207.09-.394.203-.778.338-1.152.021-.06.046-.12.069-.18.148-.387.313-.764.506-1.126l.008-.014c.199-.373.425-.729.668-1.071.02-.027.037-.056.057-.083.242-.333.506-.649.786-.95l.094-.1c.289-.301.593-.586.917-.85l.039-.03a9.99 9.99 0 0 1 2.213-1.351c.017-.007.032-.018.049-.025v.003a9.867 9.867 0 0 1 1-.383V75.5a3.491 3.491 0 0 0 3 3.45c.068-.01.139-.007.206-.021A3.5 3.5 0 0 0 20 75.5V61.961c.343.108.674.24 1 .383z"></path></svg>