<svg xmlns="http://www.w3.org/2000/svg" viewBox="0 0 595.28 841.89"><path d="M253.258 343.108c-.58 9.492.765 19.401 4.67 28.129 6.489 14.503 19.485 27.584 36.248 27.859.779-.074.751-11.785.723-12.949-.055-2.213-.158-4.425-.376-6.627-.087-.864-.083-4.302-1.225-4.526-.671-.132-1.346-.264-2-.467-5.284-1.638-9.6-5.259-12.372-10.036-3.382-5.83-4.767-12.44-4.93-19.136-.052-2.149-.039-4.297.001-6.445.035-1.853.947-5.56-1.739-5.647-.75-.024-4.035-.919-4.384-.107-.715 1.66-1.196 3.404-1.793 5.107-.35.998-1.615 1.19-2.205.288-1.494-2.284-2.97-4.618-4.272-7.017-.604-1.111-1.062-2.316-1.677-3.412-.967-1.723-1.562 1.209-1.692 1.539-1.752 4.404-2.687 8.68-2.977 13.447zM276.458 651.578c1.792-.656 3.602-1.325 5.451-1.804 2.78-.718 6.469-1.483 9.105.126 1.104.675 1.534 1.13 1.476-.701l-.12-3.801-.269-8.554-.27-8.553-.119-3.802c-.057-1.804-.978-2.095-2.436-2.689-4.552-1.857-9.208-3.604-13.654-5.711-1.31-.621-2.616-1.254-3.879-1.966-1.153-.65-2.267-1.462-2.192.531.093 2.478.202 4.955.312 7.432.481 10.82.483 21.448-.381 32.244.673-.233 6.349-2.523 6.976-2.752zM269.343 599.982c3.795 3.577 8.236 6.578 13.138 8.425 2.42.911 4.909 1.663 7.463 2.092.645.109 4.002 1.081 4.15-.17a89.41 89.41 0 0 0 .387-3.794c.444-5.994.35-12.032-.434-17.995-.297-2.261-3.889-2.341-5.638-3.164-1.61-.759-3.136-1.688-4.489-2.851-9.24-7.944-10.299-20.632-10.061-31.988.333-15.93.108-31.888.139-47.819.013-6.542-.834-13.502 2.444-19.459 3.041-5.525 7.861-9.923 13.221-13.165 1.623-.98 3.271-1.945 4.991-2.745 1.13-.525 2.429-.772 3.489-1.438 2.794-1.752-1.031-4.346-.069-6.53.307-.696.679-.846.682-1.673.003-.77.007-1.537.012-2.305.007-1.805.015-3.609.024-5.414.01-2.46-2.392-1.65-4.098-1.431-1.797.231-3.593.52-5.36.926-13.583 3.116-24.805 11.593-29.431 25.034-2.44 7.09-2.727 14.448-3.18 21.864l-1.467 24.027-1.466 24.006c-.424 6.935-1.043 13.874-.338 20.812 1.329 13.096 6.383 25.483 15.891 34.755zM276.162 439.42c1.869-.63 3.762-1.257 5.685-1.702 2.863-.663 6.612-1.365 9.293.287 1.099.679 1.57 1.187 1.511-.667l-.12-3.801-.269-8.554-.27-8.553-.119-3.801c-.057-1.803-.977-2.096-2.435-2.692-4.553-1.858-9.209-3.601-13.655-5.708-1.31-.621-2.616-1.255-3.879-1.967-1.174-.662-2.267-1.446-2.19.562.096 2.519.211 5.038.327 7.557.483 10.538.492 20.88-.397 31.391.661-.148 6.086-2.207 6.518-2.352zM265.014 326.169c2.159.577 6.405.993 7.042-2.108.503-2.452-.409-4.294-2.6-5.465-1.749-.935-4 1.576-5.454 2.587-2.86 1.989-1.579 4.083 1.012 4.986zM276.778 229.92c1.792-.655 3.602-1.324 5.451-1.802 2.78-.718 6.469-1.484 9.104.126 1.104.674 1.534 1.129 1.477-.7l-.12-3.802-.269-8.554-.27-8.553-.119-3.802c-.057-1.803-.978-2.094-2.436-2.689-4.552-1.858-9.208-3.604-13.654-5.711-1.31-.621-2.616-1.253-3.879-1.965-1.153-.65-2.267-1.462-2.192.531.093 2.479.203 4.955.312 7.432.481 10.82.483 21.447-.381 32.241.675-.233 6.349-2.522 6.976-2.752z"></path><path d="M303.387 485.414a1.264 1.264 0 0 1-.247.311c-.82.99-1.812 1.586-3.129 1.283-2.819-.65-3.828-5.765-4.396-8.062.086.351-2.833 3.154-3.156 3.463-.455.433-1.729 1.328-1.837 1.943-.109.613-.209 1.211-.389 1.808-.829 2.75-1.885 5.472-3.544 7.838-.922 1.313-1.908 2.602-3.058 3.727-1.603 1.568-1.272 2.298-.095 4.043 1.706 2.532 3.613 4.994 5.969 6.964 5.931 4.957 13.735 6.211 20.487 1.952 9.94-6.27 13.937-18.751 16.229-29.655 3.231-15.369 1.917-31.202 1.428-46.766-.48-15.32-.659-30.685-1.509-45.989-.745-13.419-2.58-27.389-9.132-39.349-3.02-5.511-6.886-11.09-12.64-14.022-5.965-3.041-13.085-2.764-18.257 1.762-2.318 2.028-4.27 4.387-6.198 6.779-1.187 1.472.102 3.012.702 4.482a71.959 71.959 0 0 1 1.764 4.828c.621 1.905 1.202 3.826 1.871 5.715.285.806.567 1.615.891 2.409.43 1.056 1.643-1.429 1.684-1.5 1.588-2.727 3.084-5.867 5.376-8.082.426-.412.949-.412 1.461-.189 4.421 1.919 4.94 7.643 6.372 11.635.972 2.711 2.024 5.407 2.49 8.265.449 2.75 1.164 5.84 1.161 8.606-.002 2.874.482 5.813.645 8.688.18 3.171.32 6.344.422 9.519.203 6.346.303 12.696.498 19.043.386 12.631.85 25.26 1.188 37.892.156 5.864.228 11.749-.069 17.612-.228 4.507-.765 9.035-2.982 13.047zM343.926 293.363c.391-5.785.875-11.608.355-17.395-.436-4.878-1.262-9.975-3.428-14.419-1.067-2.191-2.344-4.318-4.069-6.061-.496-.501-.993-1.003-1.539-1.451-.631-.732-.781-.58-.456.46.131 1.53.223 3.063.219 4.601-.017 6.248-.634 12.548-2.013 18.649-1.343 5.932-3.854 11.339-5.935 17.033-.242.663-1.314 2.515-1.055 3.198.439 1.157 1.325 1.994 1.922 3.053.409.726 1.106 2.854 2.142 2.841.875-.011 1.736-.155 2.61-.182 1.621-.048 2.513 2.195 3.581 3.099.874.737 1.805 1.417 2.642 2.195.688.641 1.774 2.062 2.763 2.248 2.177-.811 1.54-6.529 1.656-8.438.192-3.144.393-6.287.605-9.431zM287.073 681.486a56.369 56.369 0 0 1 8.206-4.753c1.218-.573 3.775-1.135 3.661-2.872-.078-1.187-.79-2.173-1.037-3.321-.184-.856.183-1.599.691-2.254.506-.655.018-3.812.021-4.69.004-.756.538-5.679-.797-5.573-1.535.121-3.072.261-4.596.497-11.69 1.823-22.982 7.117-29.427 17.448-7.905 12.669-7.103 28.108-7.981 42.482-.482 7.896-.97 21.648-1.452 29.546l-.22 3.599h-.069c-.011.515-.015.996-.017 1.411l-.044.723h.042c0 .262-.002.456-.008.548-.125 1.817-.257 3.635-.362 5.452-.809 14.146 1.577 28.557 10.085 40.252 7.171 9.857 17.895 16.829 30.182 17.906 1.359.008 1.253-9.84 1.25-11.051-.011-3.797-.211-7.596-.706-11.361-.285-2.17-3.146-2.165-4.795-2.811a16.871 16.871 0 0 1-3.141-1.604 23.233 23.233 0 0 1-5.35-4.888c-3.395-4.222-5.5-9.729-6.305-15.057-.567-3.748-1.124-25.018-1.119-27.765.015-7.839.035-21.531.051-29.369.012-6.473-.932-13.642 1.878-19.693 2.468-5.315 6.661-9.411 11.359-12.802zM265.278 252.504c-3.693 5.276-6.021 11.35-7.127 17.682-.641 3.673-.84 7.363-1.067 11.079-.211 3.451-.74 7.035-.688 10.485.014.88.334 1.908.494 2.782.275 1.516.638 2.051 1.965.624.877-.942 1.581-2.015 2.423-2.983.745-.856 1.653-1.377 2.442-2.165.671-.671 1.729-.312 2.016.532.365 1.077.984 2.054 1.336 3.136.408 1.254.668 2.334 1.433 3.43.565.81.969 1.601 1.273 2.538.355 1.093.99 1.056 1.176-.138.092-.596.186-1.191.281-1.787.965-5.949 2.847-11.884 2.946-17.929.318-12.055 12.322-20.588 22.256-25.107 2.286-1.04 3.365-1.689 2.198-4.325-.347-.786-.766-1.677-.521-2.564.089-.323.261-.677.487-.926.459-.507.317-1.04.32-1.717.008-1.742.017-3.485.023-5.227.003-.573.442-3.656-.774-3.56-.79.062-1.581.123-2.368.213-1.724.198-3.447.443-5.147.798-3.071.641-6.118 1.471-9.022 2.671-6.375 2.636-12.36 6.751-16.355 12.458zM328.206 82.975c-1.919 3.577-1.977 7.863-2.513 11.845l-1.531 11.366-1.659 12.313c-.256 1.894-.51 3.788-.767 5.682-.238 1.778.09 2.692.563 4.334.326 1.13.498 2.423 1.221 3.376.431.565.854 1.121 1.201 1.743a42.378 42.378 0 0 1 2.052 4.223c1.254 2.966 2.07 6.088 2.996 9.165 1.046 3.47 1.859 6.817 2.212 10.433.188 1.918.312 3.855.609 5.76-.008-.049.453 2.608.782 1.729.313-.84.628-1.68.932-2.522 2.582-7.117 5.848-14.858 6.312-22.481l1.411-23.13c.487-7.991.975-15.985 1.464-23.976.25-4.107.512-8.212.771-12.318.117-1.865.235-3.73.31-5.597.07-1.785.417-3.903.096-5.666-.006-.033-.004-.063-.008-.096a1.557 1.557 0 0 1-.035-.225c-.275-5.017-.877-10.14-2.66-14.87-.979-2.599-2.261-5.205-4.092-7.318-.765-.882-1.563-1.748-2.47-2.489-.854-.7-.348 1.719-.341 1.823.043.594.076 1.189.101 1.784.199 6.096-.431 12.197-1.604 18.177-1.113 5.66-2.602 11.811-5.353 16.935zM263.521 303.673c-.062-.185-.994-2.447-.978-2.475a1.206 1.206 0 0 1-.433.433c-1.053.645-1.706 1.489-2.355 2.525-1.656 2.646-2.573 4.521-1.485 7.614.31.881.583 2.936 1.72 3.156 1.744.336 2.913-.504 3.918-1.83 1.752-2.83.555-6.591-.387-9.423z"></path><path d="M287.526 718.85c4.514 4.566 11.04 7.889 17.567 5.835 6.456-2.031 11.355-7.497 14.514-13.3 7.198-13.225 8.91-29.128 8.549-43.942l-.598-19.071c-.5-15.893-.957-31.787-1.498-47.678-.455-13.385-2.493-27.359-8.883-39.31-3.014-5.634-6.89-11.417-12.699-14.479-6.02-3.171-13.263-2.987-18.528 1.621-2.318 2.028-4.27 4.387-6.198 6.778-1.187 1.473.102 3.012.702 4.482a71.767 71.767 0 0 1 1.765 4.828c.621 1.904 1.202 3.825 1.87 5.713.286.807.568 1.617.891 2.409.43 1.056 1.643-1.429 1.684-1.499 1.589-2.728 3.085-5.866 5.376-8.083.425-.412.95-.411 1.461-.189 3.95 1.717 4.626 6.392 5.829 10.033.795 2.404 1.815 4.756 2.446 7.212.641 2.495.943 5.028 1.245 7.582 1.275 10.754 1.595 21.545 1.848 32.368.268 11.385.664 22.767 1.022 34.147.342 10.861 1.123 21.873.004 32.712-.319 3.09-.739 6.285-2.086 9.124-.665 1.401-1.469 2.826-3.177 2.908-2.937.141-4.358-5.354-4.945-7.404-.147-.515-.08-1.298-.733-.448-.366.479-.728.973-1.126 1.426-.73.833-3.182 2.532-3.369 3.587-.471 2.658-1.419 5.366-2.756 7.72-.794 1.396-1.676 2.75-2.719 3.976-.532.625-3.381 2.909-2.819 3.817 1.564 2.527 3.266 5.004 5.361 7.125zM292.489 841.89l-.21-6.666-.12-3.801c-.057-1.803-.978-2.095-2.436-2.69-4.551-1.858-9.208-3.603-13.654-5.711-1.309-.619-2.616-1.253-3.878-1.966-1.174-.661-2.267-1.446-2.19.562.095 2.52.21 5.038.326 7.556.195 4.264.308 8.494.32 12.717h21.842zM246.036 322.734c.708-.057 1.087.45 1.143 1.02.492.573.941 1.19 1.474 1.713 1.303 1.277 1.993-1.904 2.209-2.46.628-1.618 1.745-2.942 2.96-4.151.335-.782-.721-2.711-.997-3.521l-1.723-5.056c-.087-.255-.326-2.168-.696-1.397-.169.353-.35.559-.626.84-.698.708-1.712 1.038-2.523 1.583-1.096.735-1.718 2.108-2.639 3.028a1.212 1.212 0 0 1-.853.353c-.895.006-.264 3.054-.208 3.256.219.785 1.287 4.887 2.479 4.792zM269.963 20.116c.663-.148 6.088-2.207 6.52-2.353 1.869-.629 3.761-1.257 5.685-1.702 2.863-.663 6.612-1.365 9.292.289 1.1.677 1.57 1.185 1.512-.669l-.12-3.801-.269-8.553L292.478 0h-21.804c.057 6.699-.141 13.373-.711 20.116zM306.67 30.266c.199 6.278.397 12.579.032 18.856-.272 4.659-.422 10.029-2.749 14.214-1.883 3.387-4.722 2.159-6.152-.864a28.847 28.847 0 0 1-1.804-4.95c-.138-.519-1.863 1.809-2.181 2.149-.979 1.049-2.712 2.151-2.977 3.595-.532 2.909-1.798 5.973-3.419 8.445-.742 1.132-1.532 2.249-2.442 3.254-1.033 1.142-2.984 2.234-1.925 3.902 3.44 5.418 8.296 11.209 14.955 12.503 14.034 2.728 22.624-11.715 26.186-23.03 4.374-13.893 4.715-28.213 4.219-42.65-.294-8.563-.57-17.126-.841-25.69h-21.854c.303 10.089.635 20.177.952 30.266zM345.75 322.779c-1.602-.515-3.172-1.141-4.752-1.72-2.767-1.015-1.29 2.293-.611 3.546a37.96 37.96 0 0 1 1.886 4.068c.384.969 1.257 4.382 2.71 4.372 1.818-.014 3.67.164 5.483.004 1.85-.162.743-3.411.28-4.226-1.567-1.888-2.587-5.269-4.996-6.044zM321.785 778.364c-3.589-10.948-11.462-26.957-25.129-26.739-6.912.11-11.445 4.428-15.561 9.505-.609.751-1.948 1.83-1.388 2.972.377.77.733 1.544 1.073 2.33a53.116 53.116 0 0 1 1.614 4.303c1.052 3.158 2.002 6.348 3.243 9.438.155.102 2.121-3.122 2.28-3.396.542-.925 1.083-1.853 1.659-2.757a50.677 50.677 0 0 1 2.748-3.869c.255-.329.798-.412 1.173-.311 4.576 1.24 5.233 7.116 6.546 10.896.933 2.685 2.064 5.344 2.595 8.148.576 3.048.803 6.141 1.291 9.201.914 5.728.881 11.784 1.078 17.575.203 6.03.306 12.062.475 18.094.076 2.712.164 5.423.246 8.135h21.855c-.241-7.608-.478-15.217-.716-22.825-.429-13.656-.787-27.596-5.082-40.7zM326.024 764.429a49.1 49.1 0 0 1 2.227 5.694c1.253 3.926 2.837 8.035 3.455 12.115.322 2.128.505 4.267.696 6.41.12 1.34.223 2.692.456 4.019.218 1.241.545 1.137.955.026a253.672 253.672 0 0 0 4.338-12.686c1.383-4.445 2.427-8.75 2.711-13.41.188-3.077.78-14.127.819-14.756.228-3.747.462-13.349.69-17.097.48-7.869 1.15-15.73 1.553-23.604.616-12.073.787-27.221-9.357-35.73-.561-.229-.05 1.192-.02 1.601.048.593.087 1.188.113 1.781.286 7.195-.518 14.565-2.185 21.571-.877 3.685-1.968 7.326-3.388 10.841-.584 1.448-1.186 2.892-1.854 4.303-.885 1.867-1.076 3.725-1.349 5.749-1.063 7.896-3.336 36.307-2.995 37.511.713 2.032 2.228 3.708 3.135 5.662zM334.728 465.629c-.562-.229-.047 1.231-.017 1.64.067.911.133 1.824.154 2.737.037 1.532.047 3.064-.026 4.596a85.689 85.689 0 0 1-.971 9.484c-.99 6.167-2.487 12.278-4.895 18.059-.543 1.305-1.178 2.535-1.795 3.803-.748 1.537-.824 3.245-1.05 4.918l-1.395 10.347-2.68 19.891c-.276 2.044-1.062 4.583-.894 6.63.108 1.311.939 2.835 1.286 4.102.432 1.578 1.573 2.683 2.321 4.113.657 1.257 1.283 2.534 1.806 3.854 2.546 6.429 4.522 13.293 5.171 20.181.209 2.202.36 4.436.813 6.604.169.808 1.129-1.699 1.117-1.668a241.614 241.614 0 0 0 4.318-12.779c1.252-4.084 2.151-8.057 2.411-12.332l.658-10.79c.973-15.927 1.967-31.852 2.938-47.777.737-12.039.843-27.13-9.27-35.613zM304.527 125.106c-5.966-3.04-13.086-2.762-18.258 1.763-2.318 2.028-4.271 4.386-6.198 6.778-1.187 1.473.103 3.012.703 4.482a71.758 71.758 0 0 1 1.764 4.828c.621 1.904 1.202 3.825 1.87 5.714.286.806.568 1.616.892 2.409.431 1.055 1.643-1.429 1.684-1.5 1.588-2.727 3.085-5.866 5.376-8.083.387-.374.992-.47 1.461-.188 1.311.787 2.883 1.571 3.585 3.057.813 1.719 1.168 3.567 1.776 5.358.958 2.819 2.182 5.601 2.841 8.511.648 2.865.963 5.767 1.375 8.671 1.701 12.004 1.592 24.253 1.906 36.356.326 12.641.777 25.279 1.175 37.917.197 6.28.423 12.579.108 18.859-.258 5.144-.554 10.434-2.796 15.157-.759 1.368-2.006 2.707-3.697 1.987-2.64-1.124-3.693-5.561-4.324-8.051.093.369-2.825 3.167-3.153 3.479-.455.435-1.728 1.329-1.837 1.945-.109.612-.208 1.209-.389 1.809-.829 2.749-1.884 5.47-3.543 7.836-.922 1.314-1.908 2.602-3.058 3.727-1.603 1.568-1.272 2.296-.095 4.042 1.706 2.533 3.613 4.994 5.968 6.963 5.931 4.958 13.736 6.213 20.488 1.953 9.939-6.272 13.936-18.75 16.229-29.654 3.231-15.369 1.916-31.202 1.427-46.766-.48-15.319-.66-30.684-1.509-45.987-.745-13.42-2.579-27.391-9.131-39.351-3.021-5.509-6.886-11.088-12.64-14.021zM338.291 336.882c-1.182-2.33-2.808-4.436-3.871-6.825-1.097-2.463-2.787-4.551-4.074-6.893-1.038-1.89-1.823-3.856-3.09-5.622-.371-.515-.907-1.347-1.498-1.648-1.067.076-1.701.58-1.904 1.51-.295 1.102-.371 2.203-.502 3.33-.354 3.027-.805 6.045-1.212 9.065-.292 2.172-1.266 5.177-.433 7.25.488 1.22.67 2.537 1.129 3.759.481 1.28 1.427 2.231 2.112 3.387 1.39 2.345 2.23 4.965 3.099 7.535.933 2.762 1.928 5.524 2.619 8.36.666 2.737.996 5.506 1.263 8.307.159 1.688.287 3.391.572 5.063.096.566.103 1.379.328 1.975.444.033.474-.934.698-1.536a264.755 264.755 0 0 0 1.526-4.214 241.707 241.707 0 0 0 2.813-8.478c1.775-5.72 3.042-11.545 2.957-17.577-.02-1.274-.756-2.217-1.241-3.348-.478-1.114-.742-2.313-1.291-3.4z"></path><path d="M296.404 45.126c1.668-.621 3.552-1.209 2.936-3.434-.263-.949-1.012-1.859-1.076-2.853-.077-1.162.809-1.727.813-2.789.008-1.671.017-3.341.023-5.012.007-1.578.73-4.606-1.624-4.392-1.809.164-3.614.368-5.4.697-6.859 1.264-13.646 3.639-19.252 7.894-5.238 3.976-9.36 9.438-11.807 15.544-2.724 6.798-3.359 13.812-3.796 21.059l-2.23 36.513-1.114 18.245c-.3 4.903-.63 9.793-.287 14.704.905 12.932 5.294 25.888 14.424 35.363 4.715 4.893 10.447 8.822 16.978 10.86 1.729.54 3.484 1.015 5.273 1.316 1.774.299 4.007 1.259 4.263-1.119.405-3.775.623-7.575.53-11.372-.055-2.213-.158-4.425-.376-6.627-.095-.948-.189-1.896-.313-2.841-.256-1.952-1.006-1.636-2.249-1.97-2.363-.636-4.688-1.612-6.654-3.092-3.999-3.013-6.831-7.144-8.609-11.808-2.261-5.933-2.847-12.095-2.732-18.409.143-7.882.126-15.765.142-23.648l.046-24.044.023-12.156c.006-2.817.381-5.519 1.486-8.133 2.405-5.688 6.928-10.354 11.998-13.779 2.693-1.817 5.528-3.58 8.584-4.717z"></path></svg>