<svg xmlns="http://www.w3.org/2000/svg" viewBox="0 0 824.992 819.986"><path d="M368.182 819.586c6.073.214 12.728.797 18.779-.033 4.168-.571 7.866-2.436 11.986-3.312 6.527-1.385 13.2-2.042 19.906-2.538.349.019.694.032 1.042.053 13.604.771 26.978-2.055 40.229-5.118a368.872 368.872 0 0 0 18.331-4.07c9.735-1.891 19.381-2.824 29.08-5.224a672.52 672.52 0 0 0 45.427-12.961c9.111-2.955 17.64-6.745 26.501-10.202 7.773-3.032 14.93-3.866 21.727-8.768 14.724-10.621 32.836-16.354 48.431-25.493 7.988-4.681 15.232-10.867 22.676-16.324 5.344-3.918 7.96-8.398 12.422-12.939 4.732-4.818 10.233-9.099 14.356-14.481 5.374-7.015 10.239-14.531 14.818-22.063 5.213-8.577 10.942-16.54 14.962-25.734 3.343-7.64 8.792-13.888 13.185-20.904 3.422-5.465 5.139-11.823 8.74-17.151 3.335-4.935 6.008-10.085 8.729-15.382 4.112-8.005 6.718-16.261 10.248-24.493 2.301-5.366 3.747-11.01 5.913-16.402.222-.517.442-1.032.66-1.548 2.411-5.485 5.704-10.471 8.841-15.567 6.044-9.822 11.265-20.046 14.575-31.104 2.123-7.096 3.641-14.293 5.607-21.396 1.954-7.055 5.499-13.059 6.897-20.332 2.593-13.488 5.727-26.389 6.606-40.104.565-8.819 1.673-17.6 1.832-26.447.014-.756.002-1.518-.002-2.277 2.1-5.752 3.357-11.728 3.225-18.013-.174-8.244 1.721-15.969.853-24.24-1.573-14.96-2.001-29.992-4.311-44.898-2.314-14.938-5.221-30.035-10.13-44.372-7.383-21.563-14.358-43.722-24.252-64.344-7.515-15.665-15.499-32.527-25.606-46.75-4.729-6.654-11.031-11.314-17.021-16.862-5.867-5.435-11.521-11.082-17.158-16.744-9.338-9.38-19.11-18.917-30.448-25.874-4.884-2.999-9.272-6.49-14-9.678-6.438-4.344-13.15-6.96-18.939-12.25-9.438-8.623-22.463-10.338-32.509-18.298-5.022-3.979-9.298-5.632-15.377-8.23-6.289-2.687-12.152-6.121-18.491-8.658a370.412 370.412 0 0 0-4.671-1.825c-3.598-2.044-7.301-3.924-11.277-5.498-9.522-3.769-19.13-6.713-28.908-9.202-1.251-.477-2.505-.948-3.751-1.435-10.808-4.226-22.167-8.764-33.445-11.639-10.73-2.735-21.978-3.392-32.832-5.647C472.142.842 462.447.112 452.772.736c-9.803.632-18.365 1.677-28.279.761-11.371-1.05-20.31-2.901-31.434.301-9.337 2.687-17.875 6.429-27.637 7.706-6.57.86-12.945.732-19.391 2.447-5.813 1.547-11.52 3.597-17.333 5.184-10.281 2.806-20.758 5.165-30.783 8.792-10.587.146-21.032-.901-31.673 1.964-7.645 2.058-14.09 5.286-21.122 8.583-8.535 4.002-17.918 6.05-26.499 10.005-14.713 6.782-25.976 17.839-39.476 26.373-12.799 8.092-25.147 15.817-36.173 26.394-6.947 6.664-13.737 13.24-21.686 18.823-10.143 7.126-21.897 12.2-31.608 19.916-10.438 8.294-20.017 20.699-26.686 32.111-8.359 14.305-16.84 29.404-21.508 45.331-4.242 14.475-9.697 28.428-14.036 42.835-1.371 4.555-2.875 8.795-3.74 13.492-1.646 8.956-5.16 17.153-7.707 25.862-3.477 11.877-5.239 24.39-7.728 36.503C6 345.162 3.189 356.23 1.629 367.403c-1.861 13.344-.13 26.026-.415 39.344-.186 8.743-1.525 17.517-1.148 26.268.281 6.521.645 12.894.822 19.404.269 9.77.401 19.007 3.625 28.214 2.45 7.005 3.191 14.357 5.894 21.292 3.088 7.924 5.963 15.911 9.027 23.85 2.79 7.23 5.178 14.689 8.395 21.754 3.146 6.91 6.885 13.552 10.06 20.451 7.356 15.979 13.984 32.748 25.613 46.286 3.707 4.317 7.76 8.078 10.805 12.883 4.921 7.766 8.383 16.502 13.544 24.104 5.233 7.706 12.589 12.937 19.927 18.577 7.563 5.815 13.776 11.25 20.036 18.447 6.394 7.353 12.304 15.048 19.789 21.398 7.109 6.032 15.063 11.285 22.565 16.832 10.88 8.039 20.191 18.926 32.198 25.323 13.636 7.265 26.148 15.409 38.552 24.533 12.776 9.396 27.888 14.121 42.854 19.061 14.323 4.726 27.743 11.722 42.184 16.195 13.16 4.082 28.408 7.484 42.226 7.967zm152.865-581.847c-2.192 2.338-11.643.9-14.964.9-5.867 0-11.734-.005-17.603 0-3.188.003-4.93.217-7.811.979-2.236.592-4.378-.035-6.646.22-5.629.633-13.726 4.601-17.196 8.954-2.938 3.685-3.935 9.389-5.125 13.667-3.013 10.825-2.561 21.776-2.561 32.946v15.31c0 3.286-1.766 13.708 1.17 14.944 1.771.745 5.678-.143 7.649.195 2.225.381 3.919 1.241 6.226 1.035 3.335-.296 4.843-2.632 7.815-3.266 3.075-.657 6.055-.045 8.979.376 6.884.992 13.382-.181 20.131-1.011 4.837-.594 11.507 1.863 15.871-.724.786 2.546.726 8.149.224 10.683-.715 3.603-1.3 6.508-1.289 10.644.03 11.157-1.26 21.901-1.26 33.078 0 6.274-.581 11.871-1.301 18.034-.354 3.034.289 1.977-2.331 2.681-2.019.542-4.994.615-7.118.983-8.679 1.507-18.267.07-27.072.285-3.58.087-6.354 1.282-10.035 1.251-5.493-.047-10.989.004-16.483.004-3.289 0-13.569-1.477-15.123 1.105-.685 1.137.091 5.278.09 6.739-.002 1.966 0 3.931 0 5.896v24.114c0 8.024.062 16.053-.03 24.076-.084 7.404.961 14.857 1.257 22.262.27 6.789 1.038 14.002 2.272 20.681 1.286 6.953.185 14.289 1.23 21.354 1.034 6.976 2.705 13.989 2.861 21.048.184 8.345.349 17.048 1.504 25.33.985 7.065.614 13.939 1.26 21.059.355 3.914 1.088 7.488 1.018 11.403-.133 7.451 1.34 14.714 1.256 22.145-.057 5.005-.745 10.705.251 15.641.945 4.679 1.176 9.134 1.004 13.938-.169 4.797-4.875 4.048-8.901 4.006-2.46-.024-4.919.005-7.379.005h-24.094c-13.408 0-26.816-.058-40.223 0-5.842.026-15.194-.206-16.5-7.59-1.027-5.807.061-12.894.061-18.859 0-4.65-.097-8.266-.979-12.729-.782-3.955.064-7.906-.215-11.864-.163-2.31-1.093-4.276-1.391-6.541-.639-4.867.065-10.277.065-15.208 0-5.293-.025-10.585 0-15.878.024-5.081-1.107-9.621-1.325-14.632-.62-14.277 1.262-28.819-.914-42.886-.771-4.984-.317-10.253-.285-15.299.044-6.831-1.362-13.448-1.284-20.219.173-15.104.029-30.215.029-45.318v-7.319h-17.818c-4.136 0-8.275.044-12.411.005-4.142-.041-7.873 1.181-12.014 1.32-7.222.242-16.151 1.021-23.237-.137-.798-3.817-.034-8.343-.036-12.274-.003-6.791 0-13.581 0-20.372V375.66c0-5.099.627-10.716-.28-15.76-1.606-8.928-.807-18.151-2.515-27.039-.956-4.97-1.695-3.978 2.869-4.694 1.486-.233.951-1.011 2.662-1.119 1.15.509 2.342.88 3.575 1.114 3.526.444 7.619.004 11.07-.383.309-.792.887-1.014 1.735-.666l1.591.389c2.02-.008 4.269-.548 6.327-.638 6.286-.273 12.261-2.409 18.681-1.016 2.59.562 4.426 1.217 7.08.733.199-.638.633-1 1.303-1.083 1.355-.227 2.522.836 3.697-.303 1.434-1.39-.44-5.539-.793-7.001-.607-2.514-1.281-4.794-1.809-7.333-1.621-7.783-2.971-15.845-3.571-23.777-.319-4.206-1.296-8.207-1.253-12.465.104-10.352.07-20.713 0-31.064-.055-8.105 1.055-15.748 2.894-23.62.402-1.721.481-3.942.955-5.625a19.902 19.902 0 0 1 4.858-7.173c4.063-5.436 5.877-12.008 9.907-17.356 2.775-3.681 6.698-6.251 10.292-9.022 5.359-4.133 9.883-8.896 15.997-11.626 4.505-2.011 8.167-4.468 12.955-6.129 5.861-2.033 11.208-3.479 16.798-6.098 2.997-1.403 6.76-2.083 10.012-2.722 2.739-.537 4.795-.263 7.619-1.224 2.979-1.013 5.548-.964 8.565-1.531 2.495-.47 4.869-1.56 7.366-1.993 3.636-.632 7.405-.263 11.071-.247 8.429.038 17.146.656 25.373-.955 8.6-1.683 16.961-2.823 25.76-2.83 3.373-.002 7.576.659 10.848.029 1.321-.254 3.82-1.7 5.011-1.276.755 2.44.157 5.5.49 8.037.643 2.76.993 5.557 1.05 8.392.151 4.475-.392 9.009-.131 13.478.315 5.377 1.713 10.833 2.301 16.213.624 5.711.281 11.489.284 17.22.004 4.623 0 9.246 0 13.87.002 3.309 0 6.618-.005 9.927-.02 2.15.011 4.298.092 6.445z"></path></svg>