<svg xmlns="http://www.w3.org/2000/svg" viewBox="0 0 687.857 729.614"><path d="M687.857 304.132c-.416-.958-.598-2.389-.662-2.776-.121-.726-.434-.943-.747-1.585-.237-.487-.216-1.428-.632-1.771-.514.445-.928 1.502-1.116 2.125a19.697 19.697 0 0 0-.532 2.21c-.057.29-.281.806-.369 1.187-.065.281-.246.737-.367 1.014-.317.721-.697 1.549-1.022 2.308-.603 1.4-1.234 2.784-1.934 4.105-.406.766-.516 2.055-1.263 2.624-.535.41-1.802.458-2.354 0-.61-.506-.703-2.172-.721-2.982-.019-.885.003-1.775.009-2.66.007-1.153-.172-2.186-.457-3.306-.253-.997-.207-1.894-.27-2.936-.082-1.345-.383-2.602-.378-3.986.002-.759.011-1.52.002-2.278a9.463 9.463 0 0 1 .071-1.251c-.654-3.507-1.361-7.353-3.789-7.557-2.333 2.148-.807 4.115-1.357 6.587-.13.581-.317 1.132-.524 1.676a101.935 101.935 0 0 1-.6 7.521 7.256 7.256 0 0 0-.071 1.729c.041 1.475.145 4.568-1.832 4.561-1.347-.004-1.852-1.851-2.128-2.969a30.38 30.38 0 0 1-.801-4.851c-.077-1.015-.559-1.981-.766-2.955-.19-.898-.312-1.692-.632-2.597-.476-1.345-.939-2.695-1.567-3.969-.559-1.137-1.154-2.224-1.392-3.459a14.511 14.511 0 0 1-.138-.921 16.683 16.683 0 0 1-1.088-1.418c-1.286-1.903-.332-5.08-3.232-5.733-2.21-.499-3.056 1.683-3.311 4.539.167 1.038.328 2.078.514 3.106.46 2.532.856 5.246.933 7.819.025.88-.132 1.767.062 2.635.146.656.282.861.298 1.598.017.921-.136 1.862.071 2.772.109.489.261.74.293 1.231.057.852-.025 1.726-.011 2.581.02.997-.384 1.341-.744 2.208-.317.766-.94 1.857-1.83 2.164-.919.317-1.476-.672-1.934-1.316-1.288-1.817-1.342-4.215-2.11-6.259-.289-.773-.792-1.561-1.04-2.33-.162-.503-.138-.994-.35-1.492a3.374 3.374 0 0 0-.161-.617l-.298-.154c-.235-.48-.237-.96-.451-1.439-.242-.543-.697-.603-.958-1.057-.214-.369.015-.742-.046-1.123-.118-.763-.459-1.651-.705-2.42-2.422-4.241-6.888-11.483-8.994-6.524-.608 1.436-.337 7.448.03 9.02.561 2.412 2.644 4.59 3.099 7.29.542 3.202-.128 7.039-.08 10.307.02 1.386-.261 6.398-1.761 7.148-3.343 1.672-8.901-5.418-11.417-7.471-1.994-1.625-7.062-6.809-9.096-2.723-.904 1.814 1.086 5.609 1.981 7.109 1.042 1.746 3.058 3.542 3.903 5.472 6.169 6.038 11.128 13.935 13.566 21.102 1.083 3.182.52 5.439-1.012 7.065-.24.659-.874 1.115-1.575 1.271-2.827 1.766-7.151 2.477-11.243 2.885-.319 2.021-.727 4.038-.979 6.109-.259 2.13-1.213 3.332-1.597 5.387-.35 1.88.175 3.663-.25 5.575-1.179 5.291-4.226 10.636-5.309 15.911-.822 3.994-1.066 7.742-2.091 11.75-2.779 10.851-8.265 21.622-13.666 31.328-2.358 4.241-3.441 11.403-6.925 14.805-2.358 2.303-6.508 1.333-9.649 1.334-10.518.005-21.646 1.277-30.657-5.399-9.194-6.81-12.824-17.48-18.247-27.056-2.641-4.661-5.832-8.711-8.215-13.542-2.239-4.543-3.862-9.354-6.035-13.919-5.783-12.156-14.974-21.859-22.14-33.08-2.784-4.36-4.083-8.34-6.306-12.819-1.467-2.959-3.977-4.656-5.731-7.386-.956-1.488-1.053-3.16-1.881-4.541-1.47-2.446-4.04-4.353-6.04-6.332-5.045-4.989-8.643-9.888-12.38-15.884-6.133-9.835-10.172-20.88-16.396-30.595-2.861-4.463-3.434-8.324-4.82-13.354.945 5.968-3.544 11.312-4.453 16.553-.641 3.688-.066 6.128-1.392 9.698-.957 2.58-1.234 5.136-1.835 7.803-1.198 5.31-.615 10.373-1.439 15.725-.678 4.406-2.229 20.628-8.302 20.682-.12-4.07-3.696-8.248-5.808-11.55l-.245-.384c-.414-2.834-.741-5.611-.748-8.604-.007-3.359-.595-5.953-1.479-9.125-1.173-4.208-1.769-8.587-2.812-12.832-.765-3.108-1.755-6.166-2.227-9.339-1.434-9.639-.857-21.222-5.508-30.033-.757-1.436-1.769-2.787-2.244-4.36-.69-2.289-.346-4.725-.683-7.062-.319-2.22-1.072-4.23-1.271-6.381-.264-2.898-1.046-5.635-1.493-8.474-.633-4.021-.857-7.917-1.952-11.862-1.453-5.233-2.631-10.897-4.639-15.943-1.276-3.208-2.821-6.31-4.104-9.523-.974-2.442-1.877-5.619-3.442-7.812-1.152-1.612-2.904-2.718-4.188-4.208-3.278-3.802-8.223-6.102-13.386-5.102-6.028 1.167-11.814 4.409-17.018 7.625-2.73 1.688-5.533 3.153-8.223 4.934-2.555 1.691-4.624 3.897-7.113 5.691-2.557 1.843-5.245 3.372-7.923 4.935-.055.113-.121.219-.178.33-.651.15-1.3.325-1.935.608-3.189 1.424-5.902 3.62-9.003 5.225-2.391 1.239-5.443 1.488-8.061 2.337-2.335.758-4.314 1.767-6.813 1.125-4.734-1.216-7.158-5.929-10.092-9.532-1.64-2.015-2.769-4.426-4.366-6.477-2.174-2.79-5.171-5.21-6.939-8.312-1.215-2.132-1.643-3.957-3.208-6.078-1.371-1.86-2.694-3.589-4.479-5.031-2.32-1.872-3.267-1.967-6.053-1.968-4.287-.002-7.925.896-11.963 2.192-2.991.96-5.075 3.235-6.72 5.964-1.055 1.751-.667 3.719-.667 5.782 0 4.927-.668 10.387.718 15.135.76 2.598 1.455 5.203 2.251 7.755.302.97.113 1.205.64 2.242 1.007 1.984 1.92 3.751 2.506 5.922 1.016 3.773 2.498 7.104 4.783 10.281 1.853 2.576 2.516 6 3.87 8.877 1.326 2.816 1.875 6.116 3.664 8.677 1.333 1.904 2.207 3.667 3.129 5.835.872 2.045 1.63 3.882 2.192 6.06.693 2.679 1.841 3.927 3.498 6.015 1.084 1.366 1.78 2.997 2.944 4.312.675.763 1.469 1.304 2.05 2.159 1.366 2.005 2.174 4.313 4.56 5.401 3.114 1.42 6.996.471 9.818-.783 2.871-1.276 5.785-2.513 8.782-3.848 1.88-.837 3.918-1.677 5.564-2.945.893-.688 1.672-1.487 2.567-2.108.164.439.332.877.493 1.316.729.325 1.47.625 2.254.81 2.362.558 4.641.966 7.043 1.797.52.18 1.136.358 1.801.531v.582c-.021 3.726 1.155 6.385 1.549 9.983 1.581 14.476-4.156 29.009-1.256 43.336 1.023 5.053 2.65 8.329 2.642 13.638-.004 3.267 1.549 13.03-4.086 12.391-.159-.017-2.929-2.247-3.269-2.419-.891-.454-2.415-1.023-3.308-1.434-2.986-1.375-3.272-2.284-5.454-4.786-2.256-2.587-5.136-4.581-7.489-7.048-3.147-3.298-6.682-6.78-9.678-10.406-2.303-2.787-5.188-4.483-7.665-7.156-2.948-3.181-3.537-7.197-6.222-10.487-5.297-6.489-8.644-14.426-13.543-21.208-1.761-2.437-3.257-5.09-5.166-7.399-1.893-2.289-4.185-3.463-6.619-5.132-5.793-3.97-8.532-8.648-9.907-15.086-.487-2.276-2.066-3.073-2.772-4.865-.564-1.435.054-2.49-.175-3.945-.52-3.295-2.074-5.938-3.421-8.903-1.405-3.096-.784-5.829-1.368-9.101-.655-3.673-1.972-8.887-3.717-11.966-.504-.89-1.356-1.434-1.881-2.432-.719-1.367-.741-2.752-1.729-4.092-1.94-2.629-4.427-4.307-6.035-7.431-2.304-4.472-3.77-8.461-5.494-13.192-1.121-3.077-1.094-6.413-2.543-9.319-.799-1.604-2.071-3.094-2.911-4.642-2.164-3.984-5.098-7.846-7.762-11.486-1.847-2.523-4.836-4.714-6.377-7.284-.803-1.34-.57-2.895-1.322-4.173-.633-1.079-2.291-1.878-3.063-3.206-1.751-3.007-3.448-6.288-5.151-9.268-7.513-13.15-6.225-28.018-6.225-42.687 0-3.651-.591-7.927.328-11.458.813-3.126 1.193-5.378 1.15-8.756-.047-3.698 1.083-5.649 1.503-8.886.187-1.441-.374-3.034-.111-4.459.323-1.748 1.321-2.949 1.63-4.741.484-2.8-.233-4.377.988-7.074.804-1.777 1.44-1.903 1.914-4.014.622-2.769 1.473-4.739 1.431-7.74-.082-5.854.274-11.75.04-17.595-.113-2.816-1.024-4.799-1.588-7.476-.315-1.491.24-2.822-.212-4.386-.887-3.061-2.353-5.963-5.6-5.955-2.727.006-4.418 1.368-7.37 1.497-1.908.082-2.667.74-4.414 1.185-1.604.408-2.86-.005-4.419.247-2.186.354-3.602 1.475-5.893 1.588-1.359.067-3.103-.419-4.419-.145-2.319.483-5.833 2.785-7.764 4.126-3.372 2.341-5.433 8.668-6.961 12.27-4.157 9.791-10.366 20.095-10.317 30.854.009 1.774-.486 4.265-.077 5.968.323 1.334 1.304 1.46 1.626 2.793.538 2.229.274 6.737-.37 8.916-1.003 3.39-2.347 5.494-5.565 5.921-2.847.377-5.856-.596-8.621.228l-.246 1.187c-2.099 1.646-4.126 4.585-4.459 7.36-.149 1.245-.161 3.247 0 4.488.182 1.396.973 2.257 1.179 3.24.304 1.447.11 2.667.289 4.13.175 1.432.971 2.228 1.184 3.235.643 3.042.221 5.558 1.44 8.545 1.476 3.62 3.668 5.944 5.965 9.208 2.378 3.381 4.082 7.517 5.887 11.206 1.17 2.394 2.853 4.391 3.321 7.138.291 1.697-.252 3.067.212 4.783.475 1.752 1.643 3.8 2.283 5.536 1.475 3.991 1.575 8.518 3.572 12.081 2.573 4.589 4.471 8.072 5.998 13.104 1.703 5.611 3.454 12.448 5.934 17.932 2.666 5.895 3.31 12.919 5.531 19.185 2.386 6.735 2.872 14.417 5.523 21.482 2.995 7.983 3.551 16.009 5.114 24.51.792 4.308 1.536 8.125 3.688 11.785 1.582 2.69 2.51 5.306 3.677 8.145 1.966 4.776 5.055 9.952 7.366 14.701 2.217 4.557 3.066 9.019 5.749 13.323 3.094 4.969 5.865 10.121 8.98 14.958 2.066 3.208 2.681 7.087 4.419 10.45 3.134 6.066 6.792 12.424 11.339 17.609.639.728 1.22 1.308 1.772 1.852.113.108.24.222.332.328.568.65.82 1.269 1.458 2.187.556.799 1.186 1.44 1.856 2.007 1.752 1.477 3.812 2.388 5.771 3.842 4.437 3.292 9.102 6.094 12.627 10.452 2.073 2.561 3.745 4.849 6.307 6.975 3.085 2.561 6.287 4.565 8.868 7.655 4.456 5.335 9.448 10.407 14.137 15.541 1.496 1.637 2.745 3.868 4.372 5.292 1.707 1.494 3.393 1.617 4.134 4.276-1.405.129-2.751-.522-4.225-1.196-4.669-2.133-9.108-4.555-13.834-6.643-5.922-2.617-10.403-4.904-15.409-8.727-1.871-1.43-3.538-2.267-5.637-3.212-5.309-2.392-11.65-4.538-16.422-7.773-.202-.137-.393-.279-.594-.417-2.557.409-3.959 1.479-6.911 1.438-2.771-.039-5.543.093-8.312-.071 1.014 1.421 2.338 1.04 3.581 1.881 1.002.68 1.714 1.835 2.744 2.578 2.151 1.549 4.619 2.068 6.853 3.31 2.372 1.319 2.837 2.237 4.634 4.058 6.361 6.447 14.463 12.049 21.479 17.71 4.709 3.801 8.629 7.99 13.962 11.015 5.604 3.178 9.029 7.571 12.427 12.836 5.379 8.337 12.095 14.896 18.911 21.815 2.939 2.982 6.354 5.375 9.201 8.469 2.105 2.289 5.145 4.145 7.003 6.562 1.126 1.464 2.1 4.986 2.951 6.744.789 1.627 1.272 3.455 2.084 5.064 1.783 3.526 4.378 6.821 6.715 10.027 2.561 3.515 5.725 6.494 8.125 10.302 1.975 3.13 4.033 6.637 7.043 8.973 3.143 2.438 3.821 5.125 6.225 8.377 1.093 1.48 2.303 2.481 3.475 3.517 1.156 2.242 2.214 4.53 3.084 6.989-.324 1.352-.671 2.7-1.053 4.051-1.044 3.701-1.03 7.539-1.657 11.301-.432 2.587-1.287 5.052-2.049 7.551-1.783 5.852-2.425 12.828-5.796 18.076-1.529 2.38-3.585 4.328-4.976 6.82-1.184 2.122-1.513 4.435-2.627 6.569-1.346 2.58-2.163 5.407-3.503 7.976-1.683 3.224-3.204 5.774-4.452 9.28-1.437 4.031-2.708 8.188-4.29 12.162-.736 1.847-1.739 2.909-2.507 4.603-1.002 2.21-1.95 4.331-3.12 6.484-1.997 3.671-3.438 7.928-5.824 11.351-.784 1.124-1.421 1.748-1.958 2.887-.519 1.099-.812 1.761-1.603 2.857-1.178 1.631-1.086-8.733-2.72-7.628-1.174.796-2.637.93-3.837 1.683-1.557.976-2.909 2.223-4.553 2.948-2.272 1.005-4.895 2.324-7.334 2.935-5.034 1.271-10.19 2.289-15.29 3.101-1.484.237-3.214 1.204-4.718 1.088-1.024-.078-1.855-.808-2.937-.658-1.239.17-1.913 1.042-3.246 1.199-3.232.385-6.433.473-9.707.993-1.669.266-3.23.259-4.893.496-3.075.438-5.792-.449-8.806-.436-4.147.017-8.228.772-12.395.632-5.535-.189-11.04-.025-16.568-.473-8.437-.68-16.664-2.6-24.898-3.912-4.031-.641-7.955-.807-12.029-1.797-2.483-.607-5.058-1.15-7.58-1.537-2.431-.373-4.812-1.202-7.282-1.37-2.89-.196-6.12-.317-8.959-1.056-1.742-.45-2.795-1.197-4.512-1.024-.762.077-1.388.516-2.028.606-.954.138-1.631-.924-2.597-.84-.437.035-.948.54-1.39.665-.775.218-.896-.285-1.738.162-.921.491-2.639 3.445-2.39 4.503.031.13 1.018 1.029 1.158 1.224.386.544.155.897.737 1.392.551.467 1.414.499 2.016.997.536.444 1.209 1.368 1.602 1.946.217.322.367.649.553.974a26.48 26.48 0 0 0-1.239.414c-1.127.41-2.264.153-3.338.056-.917-.086-2.218-.338-3.125-.271-2.024.151-3.359 1.491-5.567 1.439-1.646-.041-3.263-.678-4.907-.682-.723 0-1.135.396-1.817.273-.711-.127-1.344-.751-2.043-.953-1.649-.475-2.753-1.177-4.377-1.889-2.467-1.088-3.582-2.712-5.583-4.281-1.264-.992-2.65-1.938-3.955-2.922-1.958-1.469-3.47-2.926-5.221-4.683-3.408-3.422-6.548-6.972-9.33-10.944-1.014-1.448-1.884-3.068-3.068-4.31-1.982-2.08-4.054-3.877-5.846-6.208-1.397-1.816-2.505-2.041-4.467-3.25-1.7-1.048-3.396-3.552-5.484-3.759-.946 1.042-1.229 2.225-.945 3.541.253.706.583 1.375.99 2.001.673 1.313.9 2.343 1.41 3.677 1.245 3.239 3.642 5.876 4.921 8.932.931 2.225 2.306 4.363 2.929 6.683.706 2.619 1.696 4.752-.18 7.057-.396-.1-.795-.178-1.199-.231-.898 1.888-2.895.421-4.214.009-1.905-.598-3.785-.684-5.66-1.215-1.953-.557-3.579-1.411-5.606-1.864-1.414-.317-2.42-1.01-3.727-1.493-1.552-.574-3.254-.546-4.779-1.191a10.481 10.481 0 0 0-2.878-1.591c-1.861-.524-3.857-.227-5.754-.772-2.976-.852-5.755-1.663-8.876-2.127-4.287-.642-12.873-4.139-13.985 2.649 2.074 1.942 6.42 2.558 8.976 3.398 1.432.473 2.682.978 4.033 1.582 2.226.997 4.481 2.126 6.767 2.972 1.247.459 2.475.41 3.743.768 1.117.322 2.251 1.031 3.324 1.493.55.237 2.324.628 2.552 1.237.7 1.847-2.9 3.221-3.908 3.299-1.327.102-2.423-.589-3.667-.339-1.946.391-3.062.569-5.174.371-2.546-.239-5.119-.477-7.676-.716-1.987-.184-3.793.309-5.757.302-1.942-.011-4.288-.153-6.189-.444a32.803 32.803 0 0 1-1.763-.481c-.87.121-1.443.889-2.338 1.081-1.764.38-3.351-.71-5.166.334-1.447.834-2.106 2.024-.946 3.479 1.416 1.77 5.339 2.206 7.361 2.73 2.039.528 4.051.61 6.1 1.074 4.961 1.124 10.362 2.117 15.409 2.691 2.949.334 6.183 1.238 9.051 1.361.955.041 1.276-.089 2.253.136 1.358.309 2.8 1.238 4.092 1.804.87.38 1.914.68 2.72 1.174.491.069.896.289 1.216.66.397 1.662-1.125 1.021-1.776 1.123-1.792.271-2.391.897-4.066 1.64-2.447 1.083-6.11 1.163-8.805 1.178-2.861.014-5.656.173-8.519.36-1.869.123-4.019-.396-5.808.016-1.966.451-5.475 2.488-5.999 4.354 3.334 2.235 6.846 1.688 10.659 2.235 3 .432 6.045 1.122 9.046 1.618 3.363.56 6.045.216 9.353.389 1.953.104 3.513.55 5.304 1.17 1.498.518 3.021.634 4.538 1.152 2.281.78 4.892.785 6.905 2.358-.17.647-1.415 1.322-1.958 1.614-1.884 1.007-3.64.813-5.641 1.422-2.611.794-4.702 2.997-7.375 3.936-2.646.933-5.247.261-7.588 1.659-2.292 1.368-3.562 2.572-4.244 5.141 2.517 1.918 4.686 2.016 7.675 1.536 2.289-.364 4.462-.956 6.719-1.422 1.878-.387 3.704-.108 5.6-.3 2.454-.253 4.946-.797 7.335-1.388 1.424-.352 2.874-.885 4.301-1.2 2.458-.539 5.166 0 7.685-.261 4.191-.432 8.586-1.181 12.78-.826 1.146.099 2.22-.08 3.416-.143 2.131-.114 4.002.694 6.024 1.065 1.755.32 3.75.098 5.505.188 2.243.114 4.387-.533 6.679-.533 2.063-.005 4.521.733 6.485 1.411 3.244 1.122 6.616.451 10.037 1.351.912.242 1.816.505 2.723.756-1.634 2.937-3.864 5.441-5.235 8.575-1.879 4.298-2.982 7.339 2.211 9.663 1.259.565 2.705 1.479 4.036 1.806 2.649.649 5.534.026 8.141-.555 6.838-1.519 13.746-1.554 20.712-2.387 4.014-.479 7.925-.28 11.957-.207 3.435.062 6.918-.209 10.297-.091 6.761.242 13.895-.66 20.621.1 2.421.274 4.829.997 7.231 1.234 1.199.116 2.36-.046 3.561.097 1.961.231 3.806.227 5.802.283 5.224.143 10.47.069 15.716.27 5.747.218 11.914 1.534 17.591.619 4.547-.731 43.379 21.299 47.357 18.763 2.113-1.347 3.492-2.283 5.839-3.104 2.001-.704 3.218-1.781 5.02-2.829 1.177-.685 2.433-1.023 3.648-1.628 2.663-1.32 4.625-3.146 6.883-5.001 3.729-3.064 7.556-5.892 11.302-8.928 3.499-2.835 6.573-5.884 10.288-8.461 3.52-2.44 6.43-4.857 9.068-8.187 1.132-1.429 2.325-2.197 3.737-3.289 1.105-.854 1.473-1.674 2.319-2.749 1.617-2.059 3.619-4.165 5.857-5.502 2.516-1.505 4.679-3.039 7.013-4.806 2.064-1.562 4.469-2.46 6.466-4.035 1.797-1.416 3.789-2.397 5.688-3.641 2.142-1.404 4.036-3.334 6.092-4.849 3.645-2.687 7.807-4.599 11.629-7.062 3.808-3.876 8.405-7.037 12.045-11.104 2.004-2.238 2.651-4.029 5.146-5.717 3.2-2.164 6.299-5.604 8.949-8.406 8.329-8.812 15.085-19.104 23.33-27.992 2.266-.632 4.693-.667 7.358.291 1.802.647 5.097 2.933 6.629 4.147 3.535 2.804 4.383 6.871 6.901 10.407 2.96 4.163 5.571 8.07 8.079 12.721 1.269 2.356 2.278 4.797 4.039 6.817 1.847 2.116 4.001 3.525 5.589 5.953 1.327 2.026 1.862 4.21 3.191 6.152.988 1.445 2.565 3.063 3.684 4.46a422.726 422.726 0 0 1 3.953 5.02c.403.518.805 1.027 1.208 1.554 1.511 1.966 3.46 3.912 5.389 5.436 2.162 1.709 4.533 2.619 6.996 3.763 1.463.68 2.844 2.26 4.248 2.767 1.097.396 2.133.123 3.259.403 1.536.385 2.982 1.453 4.531 1.774 2.607.541 5.865 1.258 8.511 1.381 7.526.354 15.273.182 22.61-1.375 3.554-.753 7.442-2.155 10.431-4.136 2.644-1.753 5.229-3.58 7.859-5.352 2.218-1.494 5.129-2.758 6.892-4.847 3.434-4.065 6.946-7.982 8.848-13.017.979-2.59 1.575-5.213 2.43-7.82 1.258-3.83 3.064-6.292 3.15-10.547.162-7.724.38-15.405-1.987-22.717-1.232-3.804-2.348-6.945-4.907-10.066-1.331-1.62-2.717-2.159-4.257-3.314-1.584-1.187-2.724-2.858-4.394-3.927-.692-.442-1.392-.878-2.085-1.318-3.648-2.317-7.293-4.607-10.985-6.942-2.1-1.329-4.847-3.561-6.351-5.518-.719-.932-.949-1.92-1.787-2.738-1.249-1.213-3.033-2.057-4.257-3.349-5.624-5.945-11.447-15.245-10.097-23.913.66-.255 1.318-.514 1.991-.738 3.116-1.038 6.334-1.148 9.542-1.782 7.749-1.53 15.678-2.622 22.973-5.849 8.193-3.623 17.565-4.667 25.53-8.588 2.58-1.271 5.306-2.114 8.083-2.813 5.468-3.521 10.908-7.074 16.497-10.402 4.736-2.82 9.721-5.284 13.476-9.39 9.394-10.267 12.933-24.59 15.914-37.741.706-3.114 2.233-5.741 2.98-8.781.796-3.249.107-6.628.664-9.974.611-3.656 2.206-7.031 2.613-10.64.278-2.474.896-4.92 1.431-7.331.993-4.458 1.347-9.045 2.627-13.439 1.151-3.953 2.582-7.699 3.674-11.714.551-2.024 1.762-3.902 2.288-5.846.416-1.536-.098-2.892.211-4.355.63-2.966 1.211-5.946 1.878-8.878.526-2.307 1.117-3.229 1.188-5.887.059-2.161-.257-3.847.289-5.921.458-1.739 1.103-2.478 1.185-4.385a56.688 56.688 0 0 1-.114-3.028c.453-1.996 2.253-4.267 2.7-6.144.578-2.431.878-4.63 1.795-7.038.863-2.27 2.512-5.097 3.021-7.289.6-2.573-.061-6.244-.076-8.915-.006-1.301-.378-3.245-.075-4.495.321-1.335 1.31-1.457 1.625-2.794.343-1.447-.494-3.124-.151-4.571.095-.802.503-1.377 1.222-1.725.582-2.692.077-5.49.655-8.183.214-.997.993-1.832 1.179-3.24a50.183 50.183 0 0 1-.034-2.98c.001-1.295.171-3.198.3-5.288zM1222.44 336.599c-.637-1.264-1.386-2.358-2.273-3.44-1.285-1.568-2.54-3.922-4.058-5.216-1.449-1.236-3.645-1.646-5.252-2.691-1.53-.995-2.877-2.217-4.42-3.197-3.23-2.052-6.402-3.061-10.073-4.038-1.177-.313-2.319-.026-3.502-.099-.916-.056-1.538-.363-2.433-.536-1.621-.314-3.331-.148-4.982-.148h-5.865c-.595 0-1.424.093-2.276.156-.216.068-.432.143-.71.185-.646.099-1.359-.045-2.015-.017-.857.037-1.72.381-2.585.275-2.094-.256-3.296-1.658-3.432-3.761-.111-1.704-.307-4.222.252-5.831.385-1.111 1.026-2.115 1.432-3.22.76-2.069 1.378-4.18 2.126-6.255.228-2.621.266-5.291.09-8.01a33.574 33.574 0 0 1-.289-3.156c-.87-7.274-2.618-16.447-1.265-24.369-.139-1.136-.316-2.261-.355-3.43-.059-1.7.305-3.565-.086-5.221-.368-1.562-.389-2.954-.389-4.625 0-8.266-.591-16.381-.512-24.654.015-1.479.526-2.7.512-4.189-.017-1.743-.291-3.741.111-5.444.608-2.573.824-5.176.877-7.87.045-2.258.545-4.653.9-6.889.328-2.064-.13-4.166.211-6.231.327-1.983.926-3.54.9-5.576-.025-2.083.312-4.013.5-6.046.758-8.165 1.701-16.595 3.648-24.593a180.33 180.33 0 0 0 2.461-11.86c.817-4.697.521-9.703 1.754-14.426.413-1.586 1.073-3.087 1.148-4.734.056-1.236-.068-2.477.023-3.713-.695.922-1.877 1.215-2.561 2.328-.975 1.584-1.636 3.455-2.586 5.118-.567.993-1.444 1.988-1.928 3.017-.462.982-.631 2.043-1.045 3.056-.355.87-.94 1.889-1.379 2.918.019-.686-.036-1.384-.037-2.054-.004-3.313-.12-6.648-.025-9.958.086-3.031.523-5.962.525-9.012.002-2.632-.156-5.31.035-7.935-1.527 2.226-1.863 5.317-2.811 7.831-.561 1.487-1.176 2.969-1.598 4.501-.606 2.206-.772 4.327-1.588 6.499-.614 1.635-1.213 3.432-1.947 5.027a1.171 1.171 0 0 1-.49.857c-.565-1.63-.102-4.213-.102-5.906V110.9c0-1.246.722-7.864-.379-8.327-.4 1.156-.519 2.206-1.111 3.333-.673 1.279-1.026 2.64-1.534 3.989a55.53 55.53 0 0 0-1.988 6.421c-.432 1.773-2.123 18.897-4.413 18.233-.358-1.444-.405-2.976-.547-4.462-.122-1.284-.402-2.751-.65-4.024-.299-1.531-.104-3.09-.363-4.584-.409-2.357-.76-4.829-1.137-7.262-.287-1.852-.14-3.775-.488-5.599-.141-.735-.278-2.039-.75-2.536-.938 1.247-.94 2.894-1.126 4.34-.306 2.387-.813 4.76-1.136 7.15-.66 4.901-1.928 9.888-1.889 14.862.019 2.349.188 4.783.049 7.125-.019.313.021 1.951-.916 1.471-.291-.149-.936-1.458-1.134-1.744-.313-.453-.595-.716-.874-1.219-.441-.794-.772-1.721-1.188-2.578-.353-.728-2.203-4.22-3.213-3.907-.812 1.082-.122 3.525.25 4.653.457 1.386 1.104 2.842 1.463 4.251.224.874-.084 1.75.172 2.617.358 1.212.794 2.645 1.254 3.838.486 1.264 1.675 2.522 2.047 3.732.705 2.292-.352 4.677-.412 6.891-.038 1.398-.426 2.467-.498 3.826-.112 2.111.031 4.002-.377 6.087-.584 2.98.109 6.142-.611 9.146-.245 1.022-.51 1.623-.498 2.806.012 1.211-.035 2.426 0 3.637.071 2.454 1.438 4.59 1.496 6.988.064 2.658.002 5.325.002 7.984 0 1.805-.012 3.61.012 5.415.021 1.605-.523 3.003-.51 4.624.01 1.14.146 2.371-.113 3.474-.375 1.601-.396 3.034-.391 4.748.008 2.064-.335 3.321-.873 5.206-.741 2.592-.548 5.415-.734 8.069-.408 5.823-.312 11.714-.992 17.518-.11.943-.285 1.869-.49 2.787-.135 1.535-.178 2.992-.223 4.542-.04 1.361-.225 2.781-.333 4.139-.092 1.152-.264 2.396-.435 3.54-.296 1.987-.722 3.971-.918 5.975-.275 2.806-.563 5.569-1.433 8.282-.788 2.462-.512 5.202-1.651 7.547-.555 1.143-1.116 2.302-2.59 2.009-1.688-.335-1.928-1.494-2.486-2.909-.863-2.189-1.592-4.613-1.766-6.932-.088-1.184-.133-2.346-.397-3.472a11.858 11.858 0 0 1-.343-2.568c-.014-.672-.312-1.136-.343-1.793-.034-.709-.021-1.311-.226-2.016-.239-.826-.58-1.509-.755-2.325-.155-.722-.273-1.26-.334-2.016-.057-.708-.257-1.347-.324-2.057-.047-.487-.224-1.109-.343-1.574-.352-1.367-.343-2.572-.343-3.993v-.651a70.788 70.788 0 0 1-.155-3.625c-.052-2.999-.949-5.937-1.037-8.959-.088-2.977.017-5.981.025-8.96.013-4.413-1.012-8.693-1-13.143.006-2.184-.329-4.19-.525-6.347-.212-2.313.086-4.714.023-7.042-.054-2.025-.518-3.978-.508-6.032.009-1.988.391-3.838.51-5.802.146-2.411.512-4.771.5-7.202-.01-1.947-.192-4.02-.025-5.958.074-.87.449-1.594.551-2.461.109-.927-.091-1.926-.051-2.858.065-1.567.438-3.201.902-4.653.99-3.092 1.052-6.209 2.858-9.109 1.438-2.308 3.561-5.342 2.709-8.261-1.812.468-3.737 2.777-5.079 3.993-1.314 1.192-2.773 2.327-3.897 3.71.219-2.814.53-5.449.532-8.297.002-3.211.5-6.246.5-9.481 0-1.782-.272-3.726.111-5.464.308-1.394.388-2.579.389-4.052.002-2.695.896-7.625-.876-9.909-1.967 2.531-2.376 6.52-2.737 9.572a32.822 32.822 0 0 1-1.889 7.697c-.391 1.039-1.559 4.321-2.923 4.132-.753-4.188-1.754-8.187-2.45-12.391-.238-1.443-.502-2.889-.611-4.348-.135-1.78-.65-3.37-.917-5.117-.166-1.088.079-3.247-.972-4.006-1.1.398-.595 2.433-.736 3.333-.263 1.665-.745 3.365-.903 5.046-.238 2.542-.495 5.117-.483 7.678.017 3.607.177 7.208-.905 10.7-.105-.866-.735-1.693-.96-2.579-.604-2.384-.825-4.877-1.248-7.296-.775-4.439-1.582-8.95-3.524-13.07-.651.37-1.204 2.229-1.389 3.072-.238 1.094.029 2.663.026 3.771-.005 1.683-.111 3.36.109 5.034.424 3.214.723 6.568.024 9.785-.261 1.2-1.087 2.843-2.052.898-.37-.745-.271-2.03-.559-2.818-.306-.84-.766-1.451-1.162-2.219-1.118-2.162-1.863-4.562-2.639-6.857-.377-1.113-1.016-3.524-2.211-4.067-1.455-.661-1.38.347-1.623 1.312-.122.481-.513.409-.428 1.124.055.465.457.509.562.96.114.483-.135 1.037-.051 1.526.094.551.425.96.553 1.503.288 1.22.438 2.858.484 4.131.056 1.531.445 2.855.514 4.368.128 2.808.011 5.684-.025 8.496-.02 1.545.139 2.516.99 3.891.776 1.253 1.993 2.287 2.521 3.602 1.909 4.754.988 10.971.988 16.01 0 1.1.1 2.222-.111 3.301-.439 2.254-.331 4.474-.777 6.723-.496 2.502-.111 5.45-.111 8.002 0 9.162-.205 18.28-1.098 27.367-.449 4.573-.694 9.053-.875 13.632-.067 1.717-.49 3.354-.553 5.083-.102 2.787.208 5.597.051 8.38-.124 2.207-.507 4.283-.553 6.519-.062 3.006.375 6.19-.072 9.184-.088.587-.242 1.156-.4 1.725v1.228c0 5.974-.275 12.033-.024 18 .188 4.471 1.385 8.897 1.55 13.365.139 3.73-.222 7.483.036 11.213-1.42-3.13-2.874-6.71-3.587-10.067-.62-2.919-.887-5.915-1.447-8.847-.573-2.999-1.519-5.919-1.953-8.945-.445-3.093-1.32-5.967-1.812-9.07-.517-3.26-.895-6.602-1.533-9.836a32.611 32.611 0 0 0-.356-1.573c-.732-.695-1.48-1.391-2.346-1.87-2.815-1.56-5.325-4.493-7.448-6.912-2.882-3.284-4.59-6.265-4.578-10.589.005-1.896.013-3.793.002-5.689-.012-1.934.364-3.731.483-5.641.27-4.287 1.307-8.433 1.54-12.734.128-2.351-.146-4.692.074-7.048.237-2.53 1.089-4.882 1.425-7.352.354-2.597-.024-5.504-.024-8.134v-9.52c0-2.336-.015-4.672.012-7.008.014-1.208-.192-2.009-.402-3.155-.119-.655.062-1.508-.184-2.118-.285-.713-1.397-1.411-1.826-2.127-.278-.465-.405-1.016-.689-1.475-1.08-1.747-3.308-2.876-4.923-4.05-3.07-2.232-5.981-4.639-8.981-6.958-1.764-1.363-3.239-3.067-5.006-4.395-1.919-1.442-3.396-3.256-5.226-4.833-2.32-2-4.242-4.359-6.495-6.398-3.88-3.511-7.619-7.175-11.303-10.876-1.34-1.347-2.7-3.163-3.401-4.914-.466-1.162-1.236-2.808-1.121-4.078.218-2.377 2.694-3.974 3.573-6.105 1.661-4.023 2.814-8.08 3.992-12.253.687-2.433 1.09-4.486.992-7.022-.033-.85-.266-1.427-.402-2.238-.103-.611.163-1.94-.184-2.452-.446-.66-2.715-1.651-3.428-1.852-1.905-.535-3.385.391-5.146.816-1.168.282-1.911.228-2.973.835-.633.363-1.246.803-1.841 1.225-2.146 1.525-4.088 3.431-6 5.233-2.025 1.91-3.866 3.991-5.998 5.777-1.586 1.329-2.614 2.259-3.663 4.024-1.49 2.51-3.673 5.063-6.377 6.391-1.957.961-2.886 2.092-3.876 4.111-.517 1.053-1.61 2.081-2.022 3.074-.451 1.085-.094 2.738-.102 3.924-.002.398-.153 1.159-.037 1.528.174.553.571.495.916.948.719.944 1.551 1.974 2.133 3.024.475.857.855 2.213 1.6 2.917.199.188.762.243 1.027.435.326.236.562.737.852 1.027.928.932 2.067 1.677 3.008 2.623.993 1 1.951 2.058 3.05 2.937 2.036 1.629 3.718 3.612 5.952 4.925 1.622.953 3.002 2.215 4.361 3.514 3.005 2.873 6.732 4.862 9.644 7.876 2.496 2.585 5.501 4.543 8.106 7.068 1.353 1.311 2.326 2.949 3.673 4.254.845.819 1.832 1.435 2.628 2.312.896.988 2.345 2.295 2.623 3.627.184.872.014 2.238-.148 3.1-.309 1.65-.961 3.253-1.385 4.875-.487 1.863-.714 3.774-1.127 5.659-.336 1.528-.701 2.8-.973 4.319-.454 2.539-.891 5.442-1.927 7.773-.923 2.079-.896 4.84-.965 7.137-.069 2.357-1.024 4.284-1.875 6.334.902 6.354.974 12.877 1.505 19.272.448 5.393 1.597 10.714 1.896 16.108.21 3.772.481 7.56.51 11.338-.802-.718-1.308-3.515-1.66-4.476-.626-1.709-1.179-3.48-1.874-5.164-1.602-3.878-3.642-7.688-4.911-11.685-.979-3.08-1.815-6.43-3.127-9.367-1.093-2.446-1.334-5.483-1.863-8.105-.561-2.778-2.167-5.25-2.986-7.966-.421-1.393-.942-2.75-1.488-4.111-.485-1.209-1.477-2.583-1.637-3.889l.297-.698c-2.074-5.393-4.211-10.77-6.344-16.138-1.669-4.198-3.996-8.143-5.856-12.258-1.161-2.569-2.395-4.53-3.961-6.808-2.515-3.66-6.449-6.414-10.292-8.642-3.979-2.308-7.568-5.378-11.353-7.981-3.166-2.178-5.851-4.721-8.839-7.113-4.011-3.212-8.947-5.226-12.809-8.688-.886-.794-1.859-1.221-2.813-1.906-1.477-1.061-2.888-2.551-4.241-3.756-1.785-1.588-3.314-3.557-5.209-5.014-1.17-.9-2.474-1.527-3.539-2.575-1.16-1.143-1.102-1.902-1.049-3.478.033-.996-.048-.795.564-1.556 1.004-1.249 1.972-2.144 2.908-3.591 2.012-3.105 3.986-6.26 5.221-9.773.975-2.77 1.193-5.621 1.845-8.46.738-3.218.606-6.109-.608-9.235-.722-1.856-1.674-3.745-2.622-5.493-1.046-1.93-2.479-3.374-3.763-5.119-1.27-1.729-1.5-1.63-3.049-.37-1.664 1.354-2.699 2.505-3.902 4.42-2.043 3.25-3.099 7.176-5.376 10.25-1.032 1.393-2.263 2.386-3.196 3.873-1.082 1.727-2.118 3.458-3.27 5.144-1.859 2.727-4.201 5.385-5.562 8.408-.504 1.122-.727 2.332-1.293 3.44-.564 1.104-1.463 1.852-2.023 2.923-.377.719-.566 1.533-.869 2.285-.795 1.982-1.464 3.663-3.021 5.139-1.001.948-1.744 2.028-2.984 2.737-1.109.633-1.693 1.228-2.502 2.243-2.241 2.816-.272 5.777.926 8.712.571 1.398 1.246 2.597 2.439 3.688 1.801 1.646 4.037 1.763 6.012 2.911a46.246 46.246 0 0 0 2.068 1.789 54.216 54.216 0 0 0 3.246 2.159c1.201.792 2.131 1.943 3.357 2.677.729.436 1.632.692 2.385 1.109 1.526.846 2.777 1.982 4.166 3.017 5.164 3.85 9.699 8.571 15.307 11.857 2.514 1.473 4.628 2.202 6.723 4.358 1.627 1.675 2.959 3.603 4.566 5.291 1.844 1.936 3.646 3.895 5.553 5.777 3.533 3.491 5.803 7.748 8.801 11.655.426.554 1.074 1.563 1.557 2.125.557.65 1.409.868 1.959 1.501.77.884.938 2.138 1.447 3.161.328.661.771 1.2 1.135 1.828.411.708 1.07 1.886 1.254 2.585.229.869.098 1.894.211 2.801.152 1.222.506 1.937.891 3.034 1.07 3.059 1.756 6.357 2.623 9.498.882 3.199 1.691 6.4 2.65 9.58.572 1.894 1.33 3.503 2 5.323.795 2.158 1.188 4.871 1.711 7.068.793 3.326 1.359 6.629 2.402 9.885 2.329 7.269 3.401 14.938 5.605 22.246 1.109 3.678 3.957 7.529 4.018 11.485l3 15c4.596 5.867 9.927 11.104 15.02 16.541 2.341 2.5 4.201 4.536 7.216 6.117 4.914 2.576 9.152 6.249 13.453 9.69 2.702 2.163 5.721 2.82 8.729 4.379 4.998 2.59 8.789 7.089 13.395 10.245 5.272 3.612 11.62 5.556 17.074 8.901 2.273 1.395 4.383 3.007 6.455 4.668.307 3.113 3.912 4.302 6.174 5.777 1.143.745 1.808 1.178 3.151 1.664 1.417.512 2.915 1.191 4.278 1.817 1.606.737 4.213 1.5 5.592 2.685.722.62.726 1.099 1.526 1.545 1.563.872 3.512.214 5.169.617 6.614 1.609 14.51.378 20.789-2.148 3.102-1.248 6.037-2.326 8.682-4.499 2.341-1.922 4.344-3.262 7.297-4.018 3.108-.795 6.645-.026 9.484 1.318 1.124.533 2.028 1.372 3.148 1.904 1.256.597 2.65.778 3.938 1.312 2.165.898 4.491 1.656 6.761 2.484 3.739 1.364 7.488 2.326 11.291 3.52 3.166.994 7.04 1.771 10.356 1.213 3.505-.59 6.888-2.48 10.339-3.383 5.772-1.509 11.386-5.634 15.308-9.982 4.086-4.53 7.499-10.411 7.388-16.714-.066-3.746.6-7.637-1.153-11.117z"></path></svg>