<svg xmlns="http://www.w3.org/2000/svg" viewBox="0 0 595.28 841.89"><path d="M249.417 120.117c-3.23.419-6.984 1.947-9.335 4.277-2.708 2.685.6 7.142 1.796 9.76 1.737 3.801 2.277 6.709 6.697 7.044 2.433.184 4.896-1.008 7.325-1.163 3.782-.243 4.294 1.736 5.525 4.96 4.7 12.311 9.402 24.62 14.126 36.922 8.844 23.032 18.016 45.996 27.154 68.918 19.86 49.817 40.917 61.045 40.36 58.684-6.871-29.057-14.854-57.778-24.494-86.042-4.943-14.486-9.885-28.973-14.826-43.459l-7.092-20.785-3.869-11.337c-.645-1.89-1.287-3.779-1.934-5.669-.168-.494-1.4-5.602-1.545-5.678 1.152.614 2.75.462 3.447-.788.665-1.191 4.215-2.263 5.385-3.163 1.678-1.289 3.713-2.886 3.952-5.158.641-6.085-1.917-12.462-4.868-17.669-1.309-2.313-4.367-1.254-4.695 1.114.259-1.87-.434-.479-1.57.322-1.09.77-2.209 1.499-3.326 2.231-1.865 1.224-3.76 2.405-5.645 3.6-10.018 5.715-21.742 1.671-32.568 3.079zm27.181 19.092c5.455.361 6.836 10.703 8.338 15.104l11.533 33.805c7.901 23.156 15.801 46.312 23.7 69.469.188 1.925.367 3.85.547 5.775l.329 3.521c.102 1.081 1.358 6.031-.415 1.71a2153.197 2153.197 0 0 1-6.619-16.335 2788.959 2788.959 0 0 1-12.888-32.815c-8.63-22.334-17.01-44.765-25.4-67.188l-2.744-7.337-1.373-3.667c-1.102-2.942 4.174-2.096 4.992-2.042z"></path><path d="M228.638 39.446c-.63.543-.978 1.605-.719 2.411 1.961 6.12 2.901 12.593 4.94 18.749 1.992 6.013 4.408 11.889 6.907 17.705 5.312 12.363 11.34 24.398 16.298 36.915.299.756 1.332 1.328 2.118 1.306 6.6-.182 15.32.096 21.153-3.515.09-.055.158-.12.234-.18.096-.062.191-.117.283-.195l.047-.039c.634-.536.977-1.611.721-2.411-6.396-19.901-10.532-40.382-18.229-59.91-1.843-4.677-3.841-9.267-6.282-13.667-1.395-2.514-2.302-3.812-5.275-4.301-7.546-1.242-16.491 2.214-22.196 7.132zm29.195 32.501c2.796 5.272 3.574 10.731 4.482 16.55.476 3.048 1.091 6.08 1.64 9.115.342 1.889.681 3.779 1.02 5.669.203 1.13.247 3.566.704 4.979-2.306-5.277-4.708-10.505-7.272-15.663-2.541-5.11-6.061-10.012-8.003-15.378-2.09-5.774-2.891-12.293-4.24-18.279-1.159-5.145-2.876-10.456-3.528-15.686.363 2.913 4.59 8.693 6.312 11.94l8.885 16.753zM226.441 31.341c.374 1.506 2.226 2.462 3.624 1.609 4.726-2.885 9.739-4.849 15.289-5.339 1.506-.133 3.034-1.38 2.509-3.087-1.798-5.844-3.183-11.889-1.78-17.971.056-.242.069-.471.063-.692.173-1.078-.306-2.169-1.711-2.437-8.47-1.609-19.792 1.608-26.323 7.173-1.066.909-.973 2.544-.112 3.534 4.31 4.957 6.868 10.878 8.441 17.21zM186.112 442.84c.669.996 1.711 1.498 2.695 2.125 1.074.683 2.236 1.626 3.489.767 1.489-1.02 1.367-3.173 1.666-4.717.192-.993.614-1.812.691-2.842.067-.917.027-1.891.016-2.812-.02-1.486-.031-2.757.427-4.181.188-.59.445-1.189.576-1.795.225-1.039.232-2.077.197-3.117-.256-.756-.528-1.501-.777-2.23-.381-1.113-.761-2.133-1.316-3.172-.61-1.141-.7-2.062-1.667-2.973-.615-.577-1.458-.972-1.823-1.685-.597-1.16-.451-1.528.488-2.307.745-.614 2.242-2.172 3.381-1.612.576.284 1.257 1.475 1.626 1.942.304.386.565.782.827 1.18.647-2.188.672-4.312.996-6.538.223-1.521.748-3.101.783-4.636.031-1.33.201-2.413.692-3.68.712-1.834 1.88-3.474 2.539-5.326.765-2.161.99-4.019 2.279-5.938.106-.159.218-.317.331-.476-.055-.223-.112-.449-.144-.7a.544.544 0 0 0 .157-.53c-.03-.334-.285-.783-.397-1.105-.29-.836-.57-1.675-.857-2.515l-2.468-7.252c-.252-.737-.573-1.493-.774-2.247-.154-.573-.041-1.155-.163-1.711a1.138 1.138 0 0 1-.198-.511c.102.167.159.337.198.511.275.428.771.799 1.075 1.044.815.656.316.191.894.966.779 1.048 1.453 2.187 2.302 3.181 1.129 1.321 2.496 2.387 3.621 3.718 1.716 2.028 3.711 3.96 5.7 5.723 1.032.914 2.176 1.449 3.175 2.43a7.584 7.584 0 0 0 2.52 2.241c.567.152 1.128.327 1.682.522l-2.549.866c-.064.125-.125.252-.189.377-.501-.443-.662-1.103-1.115-1.582-.587-.623-1.495-1.206-2.206-1.672-1.282-.845-2.547-1.414-4.061-1.452-.91-.022-2.514.233-3.876.742-.052.393-.099.788-.13 1.195-.165 2.248-.115 4.441-.133 6.692-.018 2.378.066 4.692.134 7.059.047 1.614-.382 3.112-.542 4.706-.368 3.637.268 7.248.169 10.89-.064 2.366-.048 4.771-.228 7.129-.142 1.856-.581 3.591-.404 5.447.246 2.584.177 5.217.516 7.786.506 3.846 1.535 7.618 2.094 11.466.325 2.234.518 4.286 1.283 6.444 1.588 4.48 2.941 9.262 5.466 13.319 1.463 2.353 3.311 4.537 5.33 6.502 1.577 1.531 5.225 3.905 7.52 2.632 1.816-1.013 2.952-2.913 3.003-4.916.023-.985.243-2.044.212-3.014-.021-.645-.361-1.295-.566-1.902-.508-1.501-1.112-2.922-1.239-4.506-.102-1.27-.225-2.558-.466-3.812-.356-1.858-.89-3.591-1.389-5.396-.145-.191-.3-.393-.472-.61-.988-1.272-1.584-2.423-3.19-3.001-1.195-.431-2.747-1.065-3.456-2.183-.517-.817-.395-1.469.056-2.237.378-.643.832-1.08 1.336-1.618.342-.367.642-.905.922-1.229.36-.411.258-.456.938-.363.807.111 1.63.848 2.285 1.407-1.025-4.335-2.062-8.657-2.333-13.124-.259-4.245-1.189-8.627-.933-12.883.117-1.933.102-3.744.08-5.68-.024-2.145.286-4.265.263-6.411-.022-2.23.568-7.204 3.287-7.961.562.708.171 1.857.3 2.694.134.499.248 1.005.342 1.514.097.98.386 1.802.549 2.791.436 2.646 1.19 5.323 1.299 7.994.128 3.155.687 6.322 1.365 9.405.601 2.733.74 5.449 1.356 8.189.882 3.938 2.567 7.815 3.867 11.636 1.182 3.47 2.381 6.936 3.545 10.412.595 1.768 1.209 3.338 2.187 4.932.865 1.407 1.683 2.907 2.24 4.462.427 1.191.907 2.231 1.449 3.353.618 1.276.981 2.55 1.759 3.775 1.82 2.86 3.344 5.769 5.453 8.46.776.99 1.612 2.303 2.579 3.166.653.579 1.53 1.108 2.234 1.603 1.205.844 2.351 1.508 3.76 1.947 1.06.331 2.118.321 3.18.602 1.503.396 2.217.499 3.667-.115 1.666-.71 1.9-1.594 2.078-3.28.115-1.085.043-2.458-.09-3.546-.129-1.061-.718-1.711-1.215-2.61-.999-1.802-1.766-3.761-2.805-5.556-.657-1.134-1.397-1.982-1.808-3.229-.352-1.066-.724-2.123-1.085-3.187-.348-1.019-.694-2.04-1.042-3.058-.129-.088-.255-.178-.391-.251-.667-.35-1.471-.398-2.119-.762-.679-.383-.976-.74-1.766-.92-.886-.204-1.643-.224-2.53-.139-.613.059-1.131.285-1.725.382-.354.057-.753-.044-1.143.015-.44-.478-.079-1.428.233-1.887.372-.549 1.166-.702 1.719-1.089.997-.695 2.139-.894 3.292-1.195.542-.144 1.807-.125 2.244-.592a914.18 914.18 0 0 0-2.731-7.981c-.825-2.37-1.208-4.81-2.031-7.183-.498-1.438-.886-2.76-1.145-4.257a1.367 1.367 0 0 0-.328-.313c-.376-.24-1.038-.244-1.463-.374-1.454-.442-2.73-1.06-4.264-1.253-.769-.094-1.974-.048-2.703-.396-.581-.276-.769-.851-.562-1.341.096-.226.935-1.153 1.095-1.327.603-.657 1.794-.874 2.635-1.031 1.319-.245 2.678-.358 3.977.04-.062-.262-.122-.524-.194-.781-.667-2.405-.484-4.954-1.254-7.329-.571-1.759-.702-3.436-.494-5.288.123-1.09.023-2.051.041-3.126.02-1.222.417-2.051 1.069-2.861-.032-.122-.062-.246-.102-.343-.247-.601-.663-1.156-1.075-1.67-.775-.964-1.761-1.727-2.807-2.273-.571-.298-1.28-.615-1.789-1.014-.801-.631-1.432-1.521-2.401-1.982-1.683-.801-2.615-2.303-3.958-3.599-.515-.496-.971-.956-1.357-1.568-.323-.511-1.306-1.72-1.229-2.31 1.068-.188 2.188 1.216 2.768 1.93.191.301.399.593.619.872.589.468 1.503.376 2.157.734a5.612 5.612 0 0 1 1.404 1.285c.782.738 1.566 1.138 2.5 1.606 1.417.708 2.879 1.74 4.392 2.156 1.407.384 2.498 1.38 3.901 1.85 1.359.456 2.71.925 4.048 1.448 1.046.407 1.776.606 2.865.809.825.153 1.655.654 2.507.645.635-.01.984-.278 1.67-.102l-2.847 2.883c.009.006.014.008.022.015-.013.004-.028.002-.042.005l-.154.155a.659.659 0 0 1-.004-.137c-.612.021-1.29-.513-1.843-.778-.779-.373-1.577-.574-2.414-.792-.997-.259-2.597-.32-3.558.286a1.96 1.96 0 0 0-.301.241c.01.031.018.068.028.099.424 1.219.935 2.423 1.171 3.696.358 1.933.931 3.666 1.566 5.531l4.119 12.103c.595 1.746 1.04 3.704 1.91 5.336 1.136 2.133 2.265 4.387 2.999 6.694.428 1.346 1.096 2.427 1.656 3.696.407.926.917 1.334 1.47 2.136.469.68.75 1.608 1.15 2.336.647 1.174 1.416 1.985 2.273 3.009 1.494 1.781 2.703 3.919 4.388 5.526 1.228 1.17 2.739 1.98 3.946 3.169 1.479 1.46 2.924 2.858 4.48 4.214 1.021.889 2.11 1.931 3.39 2.435.714.281 1.563.903 2.307.532.841-.419 1.415-1.419 2.198-1.916.645-.409.787-.168 1.025-.897.175-.536-.158-1.065-.256-1.558-.312-1.61-.426-3.263-.821-4.871-.322-1.307-.46-2.501-.909-3.821-.564-1.657-1.253-3.342-2.057-4.889-.775-1.495-1.593-3.164-2.727-4.427-.59-.66-1.021-1.333-1.428-2.026-.752-.339-1.511-.766-2.303-.99-.744-.21-2.247-.057-2.858-.611-.703-.638.776-2.025 1.318-2.246.473-.194 1.015.063 1.491-.217.039-.024.068-.055.104-.081-.045-.066-.078-.134-.129-.197-.563-.748-.826-1.218-1.127-2.1-.429-1.246-.844-2.497-1.27-3.743-.76-2.236-1.857-4.534-2.346-6.835-.271-1.281-.167-2.624-.49-3.92-.463-1.859-1.09-3.884-1.184-5.807-.136-2.757-.736-5.541-.375-8.315.184-1.41.357-2.763.627-4.16.201-1.042.209-1.927.176-2.976-.034-1.095.178-2.183.197-3.3.035-1.872.854-3.744.781-5.587l-.021-.39c.017-.145.042-.29.087-.443.176-.594.225-1.155.301-1.776.076-.626.387-1.381.42-1.972.072-1.311-.534-2.641-.96-3.89-.493-1.452-.858-3.013-1.81-4.245-.435-.565-.934-.906-1.317-1.538-.304-.501-.524-.942-.91-1.378-1.201-1.354-2.313-2.811-3.376-4.276-.318-.438-.363-.689-.766-1.005-.341-.268-.559-.267-.842-.608-.467-.563-.882-1.12-1.396-1.659-1.745-1.828-2.909-3.969-4.264-6.084-1.8-2.811-3.664-5.501-4.819-8.691-.06-.167-.114-.338-.172-.506 1.038 1.3 2.079 2.598 3.013 3.979.818 1.207 2.19 2.108 3.359 2.936 2.658 1.876 4.87 4.199 7.782 5.66 1.268.635 2.383 1.517 3.54 2.33.983.58 1.854 1.298 2.614 2.151l.885 1.179c.505.42.973.459 1.418.894.322.313.614.975.93 1.336.099.113.174.242.261.363.127.034.255.072.409.061 1.075-.079 1.803-.928 2.597-1.477.483-.335 1.255-.536 1.827-.615.818-.112 2.035-.643 2.827-.511 1.428.236-.112 2.081-.575 2.715-.66.905-1.421 1.731-2.102 2.62-.605.79-.766 1.176-.957 2.088-.154.731-.551 1.309-.689 2.053-.062.328-.123.674-.178 1.017.148.899.25 1.804.25 2.707.002 1.749-.473 3.344-.302 5.1.087.891-.252 1.628-.235 2.457-.003.254.062.488.193.707.026.826-.104 1.631-.083 2.468.019.769.177 1.48.179 2.267l-.002.025.059-.061c.372-.394.315-.827.863-1.111.207-.043.41-.101.609-.175.504-.158 1.003-.342 1.503-.514.681-.236 3.794-1.381 4.021-.219.107.562-.556.86-.93 1.136-.697.505-1.55 1.088-2.032 1.841-.876 1.361-1.448 3.075-2.151 4.525-.604 1.242-.844 3.231-.688 4.706.244.657.5 1.314.72 1.959.661 1.943 1.226 3.883 2.231 5.687 1.024 1.83 1.977 3.526 3.521 4.975 1.122 1.052 2.324 2.057 3.43 3.114.878.843 1.869 2.691 3.297 2.646 1.516-.048 2.941-1.453 3.438-2.796.693-1.869 1.066-3.821 1.064-5.756-.002-.583.188-1.084.178-1.665-.012-.69-.204-1.511-.338-2.191-.152-.768-.323-1.56-.428-2.325-.182-1.302-.002-2.726-.131-4.026-.15-1.511.453-2.439.649-3.894.104-.779-.041-1.643.032-2.44.105-1.189.24-2.344.445-3.523.427-2.458.566-4.875 1.297-7.285 1.519-5.001 2.613-10.042 4.486-14.912.958-2.493 1.203-5.721 1.234-8.365.032-2.692-.613-5.694-1.516-8.206-1.018-2.833-1.965-5.696-2.921-8.551-.954-2.854-2.232-5.451-3.658-8.098-1.257-2.333-2.811-4.921-4.749-6.747a181.177 181.177 0 0 0-5.296-4.821c-1.786-1.56-3.667-3.129-5.352-4.811-1.186-.823-2.426-1.56-3.555-2.486-1.621-1.329-3.73-1.981-5.71-2.65-.606-.205-1.233-.385-1.837-.599-.691-.297-1.381-.597-2.07-.896a13.155 13.155 0 0 0-1.99-.32c-.721-.196-.98-.497-1.766-.532-.547-.022-1.107.168-1.609-.042 1.991-1.177 4.401-2.583 6.842-2.407 1.146.175 2.278.422 3.396.739 2.104.485 4.337.543 6.415 1.103.414.111.812.253 1.201.41.092-1.73.361-3.447.869-5.112 1.073-3.526 1.648-7.274 2.568-10.86.936-3.641 1.977-7.396 2.305-11.151.176-1.994.672-4.026.77-6.009.062-1.275-.473-2.427-.878-3.598a293.105 293.105 0 0 1-1.683-4.969c-1.003-3.068-3.207-5.454-5.105-8.01-1.667-2.244-3.602-3.622-6.006-4.979-1.957-1.104-3.887-2.315-5.994-3.13-1.876-.725-3.84-.892-5.758-1.493a27.661 27.661 0 0 0-5.093-1.101c-4.388-.499-8.904-.295-13.294.127-2.532.243-4.777 1.137-7.18 1.955-1.351.46-3.017.762-4.275 1.434-.489.262-.591.578-1.027.8-.945.479-1.855.454-2.67 1.264a10.944 10.944 0 0 0-1.776 2.27c-.678 1.156-1.518 1.996-1.683 3.416-.19 1.643-.692 3.196-1.081 4.831-.55 2.315-1.005 4.909-2.391 6.887-.067.098-.136.201-.205.299a21.143 21.143 0 0 1 5.021 2.562c.385.267.605.55.942.859.644.592 1.458.824 2.155 1.332 1.475 1.074 2.547 2.438 3.102 4.142.178.551 1.146 2.392.609 2.718-.351-.384-.458-.904-.816-1.319-.736-.852-1.681-1.482-2.514-2.235-1.31-1.186-3.012-1.739-4.722-2.233-1.119-.322-2.267-.785-3.427-.891-.999-.09-2.087-.172-3.189-.176-.075.168-.167.334-.237.502-.632 1.527-.826 1.679-1.897 2.902-.668.761-.945 1.657-1.463 2.456 2.138.321 4.369.995 6.26 1.809 1.206.518 2.73.962 3.837 1.63 1.037.627 1.863 1.886 2.734 2.727 1.304 1.26 1.589 2.896 2.16 4.575.322.941.892 2.113.987 3.113-1.024-.43-1.851-1.58-2.687-2.285-1.438-1.213-3.108-2.02-4.731-2.939-2.792-1.585-6.589-2.71-9.812-3.073-1.371-.153-2.724.319-4.098.34-.38.007-.776-.003-1.172-.004-.398.354-.822.665-1.306.866-.726.304-1.21.505-1.918 1.021-.678.493-1.761.975-2.308 1.607-.772.89-1.101 1.251-2.228 1.85-1.524.805-2.843 3.137-3.809 4.517-.803 1.146-1.995 1.917-2.864 3.038-1.728 2.231-3.009 5.304-4.049 7.92-1.07 2.689-2.326 5.271-3.47 7.927-1.363 3.17-1.85 6.621-3.776 9.542-.859 1.303-1.076 2.615-1.38 4.134-.507 2.524-.994 5.06-1.527 7.578-.703 3.321-2.065 6.439-2.872 9.734-.506 2.072-.684 4.139-.938 6.251-.258 2.136-.527 4.267-.878 6.389-.354 2.136-.383 4.047-.425 6.194-.067 3.604-.891 7.14-1.234 10.708a109.282 109.282 0 0 1-.75 6.063c-.221 1.438.024 2.389.28 3.796a27.86 27.86 0 0 1 .344 4.06 3.208 3.208 0 0 1-.496 2.022c-.005.91.217 1.576.18 2.542-.104 2.66.077 5.307.069 7.965-.007 2.081.319 4.134.311 6.202-.006 1.333-.318 2.346.084 3.634.363 1.163.824 2.311 1.208 3.468.671 2.021 1.808 3.626 2.695 5.535.67 1.431 1.453 2.93 2.338 4.25zm45.429-96.976c.97 1.968 2.261 3.751 3.454 5.584 1.547 2.376 2.771 4.751 4.081 7.256 1.049 2.005 2.426 3.639 3.565 5.572 1.044 1.775 1.922 3.734 2.704 5.641l1.256 6.076c-.223-.651-.282-1.028-.684-1.589-1.288-1.801-2.844-3.305-3.978-5.269-3.564-6.163-7.798-12.035-10.204-18.792-1.119-3.142-2.131-6.332-3.186-9.497-.627-1.879-1.592-3.568-2.281-5.416-.941-2.525-1.723-5.126-2.591-7.676 2.169 6.231 4.944 12.194 7.864 18.11zm-22.092-2.743c.07.138.151.277.252.425 1.939 2.84 4.21 5.478 6.222 8.271a32.13 32.13 0 0 0 2.89 3.795c1.455 1.631 3.071 3.027 4.344 4.82 1.856 2.609 3.766 5.133 5.733 7.667 2.082 2.682 3.747 5.676 6.135 8.104 2.355 2.394 4.778 4.69 7.098 7.113 2.454 2.562 5.217 4.977 8.225 6.852a6.3 6.3 0 0 1 2.354 2.03c1.547 1.702 3.04 3.338 4.739 4.892l-3.773-.34c.033.071.069.141.102.211-.724-.207-1.116-.606-1.741-1.032-3.489-2.391-6.676-5.2-10.068-7.726-7.165-5.334-13.914-10.62-18.609-18.33-1.562-2.567-3.522-4.869-5.071-7.449-1.747-2.907-3.201-5.905-4.482-9.046-1.403-3.437-3.054-6.782-4.35-10.257-.222-.429-.325-.821-.499-1.327.152.448.334.886.499 1.327zM258.229 244.261c-1.366-.677-2.657-1.034-4.073-1.534-1.31-.463-2.284-.551-3.632-.773-1.383-.229-2.713-.673-4.119-.74-2.95-.141-5.881-.221-8.822-.019-1.595.109-3.215.116-4.802.313-1.625.202-3.121 1.086-4.672 1.544-2.129.628-4.11 2.359-5.314 4.204-.947 1.451-.848 3.585-.839 5.245.008 1.438.447 2.122 1.987 1.998 1.167-.094 2.247-.771 3.274-1.264a49.1 49.1 0 0 1 3.251-1.421c1.882-.797 3.642-1.525 5.63-2.015a13.694 13.694 0 0 0 3.178-.939c3.654-1.353 7.769-2.614 11.707-2.54 1.325.025 3.244.549 4.519.134l.026-.275 8.308.929c-.73-.971-.983-1.6-2.146-1.748-1.299-.167-2.264-.505-3.461-1.099zM219.394 672.527c-.468 1.222-1.024 2.078-1.886 3.102-.98 1.166-1.634 2.337-2.454 3.594-.76 1.164-1.075 2.09-1.61 3.347-.549 1.29-1.296 2.478-1.693 3.827-.835 2.833-1.605 5.662-2.105 8.567-.271 1.575-.646 3.151-.831 4.739-.188 1.627.317 3.289.395 4.905.107 2.218 1.321 4.552 2.828 6.158 1.187 1.263 3.283 1.672 4.898 2.056 1.399.333 2.167.068 2.412-1.458.184-1.156-.218-2.366-.455-3.48a49.089 49.089 0 0 1-.61-3.495c-.329-2.017-.621-3.898-.626-5.947.08-1.109.027-2.213-.162-3.31-.449-3.87-.702-8.167.302-11.976.338-1.281 1.301-3.022 1.198-4.358-.086-.03-.174-.062-.261-.091l2.867-7.852c-1.116.48-1.787.577-2.207 1.672zM337.824 568.476c-1.407-.007-2.759.368-4.152.523-1.357.152-2.335.189-3.668.583-1.439.425-2.748.716-4.146 1.319-1.228.532-2.208.82-3.513.918-1.169.088-1.455.702-2.234 1.633l8.345-.494.012.276c1.25.481 3.195.059 4.519.103 3.937.131 7.981 1.605 11.56 3.146a13.63 13.63 0 0 0 3.124 1.104c1.961.592 3.68 1.411 5.518 2.306 1.077.49 2.135 1.02 3.173 1.587 1 .547 2.043 1.278 3.203 1.435 1.533.203 2.007-.457 2.09-1.893.096-1.657.305-3.783-.564-5.282-1.106-1.904-2.994-3.736-5.088-4.476-1.526-.537-2.974-1.498-4.586-1.785-1.574-.279-3.192-.371-4.779-.563-2.929-.354-5.861-.428-8.814-.44zM249.628 554.33l.983-8.301.275.037c.693-1.146.62-3.135.896-4.431.823-3.852 2.986-7.572 5.134-10.824a13.714 13.714 0 0 0 1.638-2.88c.929-1.826 2.037-3.375 3.241-5.026a49.743 49.743 0 0 1 2.122-2.844c.713-.888 1.617-1.785 1.975-2.9.471-1.472-.095-2.055-1.494-2.391-1.614-.384-3.67-.966-5.299-.374-2.07.753-4.207 2.289-5.302 4.22-.798 1.406-1.998 2.663-2.564 4.2-.554 1.5-.929 3.076-1.397 4.604-.865 2.819-1.453 5.691-1.986 8.597-.254 1.385-.123 2.781-.215 4.18-.09 1.363-.226 2.332-.072 3.712.165 1.492.22 2.832.568 4.316.308 1.301.417 2.316.284 3.619-.121 1.166.434 1.554 1.213 2.486zM272.182 238.932c.08.05.162.088.246.109l-.246-.109z"></path><path d="M270.832 237.248a29.302 29.302 0 0 0-2.753-2.763c-2.122-1.861-4.012-3.944-6.177-5.697-1.218-.987-2.301-1.801-3.667-2.61-1.584-.938-2.614-2.364-4.145-3.364-3.412-2.228-6.99-5.109-11.15-5.736-.871-.131-1.996-.142-2.881-.1-1.059.049-3.042.729-3.731 1.591-1.173 1.467.102 4.577 1.057 5.869.848 1.147 2.03 1.593 3.239 2.258.822.473 1.641.953 2.457 1.438 1.548.804 3.314 1.326 4.975 1.85 3.226 1.017 6.5 2.156 9.812 2.861.82.174 1.602.688 2.392.811l11.924 5.278c-.538-.338-.98-1.257-1.352-1.686zM295.947 567.278c9.176-9.458 18.333-18.933 27.487-28.41 2.399-2.48 3.646-4.101 7.032-2.393 2.171 1.097 3.97 3.16 6.278 3.947 4.197 1.427 5.835-1.037 8.926-3.852 2.127-1.937 6.92-4.738 5.482-8.27-1.248-3.067-4.101-5.945-6.904-7.6-9.406-5.545-21.777-6.429-28.746-15.618-1.264-1.839-2.543-3.668-3.777-5.527-.738-1.11-1.482-2.221-2.184-3.356-.729-1.183-.82-2.733-1.317-.914.628-2.308-1.769-4.481-3.88-2.868-4.758 3.631-9.614 8.494-11.414 14.34-.673 2.184.571 4.451 1.607 6.295.724 1.287 3.567 3.667 3.71 5.023.152 1.423 1.562 2.191 2.862 2.078-.162.016-3.301 4.229-3.651 4.616-1.334 1.483-2.668 2.97-4.004 4.452l-8.009 8.909-14.682 16.332-30.699 34.149c-19.964 22.207-38.582 45.489-56.308 69.514-1.44 1.955 22.334-.104 60.159-38.123 17.405-17.494 34.856-35.012 52.032-52.724zm-75.489 62.021c-3.328 3.278-.228-.781.29-1.735l1.686-3.11c.921-1.7 1.842-3.401 2.769-5.098 16.358-18.195 32.714-36.391 49.072-54.585 7.959-8.854 15.92-17.707 23.879-26.563 3.109-3.457 8.439-12.425 13.598-10.617.773.271 5.959 1.563 3.791 3.837-.902.944-1.803 1.891-2.703 2.835-1.801 1.89-3.604 3.779-5.404 5.669-16.522 17.331-33.034 34.67-49.739 51.823-8.2 8.419-16.432 16.805-24.738 25.121a2218.73 2218.73 0 0 1-12.501 12.423z"></path><path d="M377.416 439.394c-2.926-.717-4.271.119-6.539 1.885-3.973 3.088-7.613 6.526-11.145 10.103-14.744 14.938-26.59 32.151-40.285 47.943-.551.635-.656 1.759-.285 2.501l.027.053c.055.108.121.196.186.292.046.085.084.171.145.257 3.947 5.61 12.076 8.778 18.072 11.537.717.328 1.891.21 2.463-.369 9.474-9.566 19.744-18.268 29.481-27.553 4.583-4.368 9.112-8.823 13.304-13.572 4.291-4.859 7.699-10.444 11.904-15.302.557-.64.652-1.752.285-2.501-3.316-6.763-10.185-13.453-17.613-15.274zm-6.159 26.322c-3.589 4.975-6.886 10.657-11.075 15.146-3.893 4.173-9.055 7.3-13.398 11.002-4.383 3.737-8.645 7.602-12.838 11.551.977-1.121 1.973-3.344 2.603-4.304 1.054-1.607 2.106-3.211 3.163-4.814 1.697-2.575 3.453-5.122 5.088-7.738 3.119-4.994 5.979-9.711 10.618-13.463 4.917-3.971 9.833-7.945 14.751-11.918 2.859-2.31 9.016-5.966 10.494-8.502-2.655 4.553-6.319 8.763-9.406 13.04zM416.037 432.269c-3.822-7.682-12.971-15.087-21.393-16.932-1.398-.306-2.266.509-2.531 1.569-.092.199-.17.415-.213.66-1.098 6.145-4.744 11.161-8.693 15.829-1.151 1.363-.236 3.111 1.096 3.823 4.912 2.632 8.75 6.406 11.965 10.914.949 1.334 3.029 1.182 3.965-.058 3.934-5.204 8.611-9.646 14.52-12.513 1.181-.571 1.909-2.04 1.284-3.292zM185.86 589.302c.319.466.942.521 1.393.742 1.473.727 2.855 1.637 4.374 2.297 1.236.535 2.268 1.148 3.592 1.592 1.659.557 3.416 1.029 5.135 1.326 1.659.29 3.483.648 5.175.514.759-.06 1.454-.014 2.143.061 5.127-3.522 8.523-9.527 7.246-15.515-.582-.121-1.174-.297-1.727-.38-1.327-.193-2.436-.074-3.771-.013-2.322.108-4.755-.224-7.056.142-1.674.268-3.236.98-4.911 1.223-2.058.292-4.044.592-6.068 1.009-1.324.276-2.812.512-3.989 1.222-.656.4-1.665.698-1.82 1.515-.176.921.271 1.983.192 2.908-.068.759-.346.728.092 1.357zM371.375 681.974c-.082-2.162-.434-4.041-.822-6.152-.654-3.547-.555-7.176-.934-10.739a109.934 109.934 0 0 1-.476-6.091c-.072-1.454-.503-2.336-1.035-3.664a28.011 28.011 0 0 1-1.148-3.908 3.197 3.197 0 0 1 .081-2.08c-.178-.895-.529-1.502-.685-2.455-.433-2.627-1.136-5.186-1.659-7.789-.41-2.043-1.141-3.988-1.549-6.016-.258-1.307-.155-2.361-.809-3.544-.586-1.066-1.269-2.099-1.875-3.155-1.062-1.847-2.495-3.191-3.748-4.887-.943-1.275-2.01-2.584-3.139-3.699-.856-.846-1.978-1.128-3.067-1.545-1.188-.455-2.517-1.146-3.571-.053-1.257 1.296-.704 3.381-.688 4.952.008 1.013-.238 1.899-.109 2.924.117.913.352 1.858.549 2.759.314 1.451.58 2.696.417 4.182-.068.614-.2 1.256-.206 1.875-.014 1.062.188 2.082.43 3.091.402.689.816 1.367 1.207 2.03.596 1.017 1.172 1.939 1.923 2.846.827.996 1.1 1.882 2.229 2.579.716.442 1.62.662 2.121 1.286.818 1.02.748 1.408-.016 2.355-.607.755-1.764 2.58-2.992 2.259-.62-.163-1.525-1.192-1.981-1.579-.375-.315-.71-.65-1.046-.99-.197 2.272.205 4.359.332 6.605.086 1.535-.111 3.188.156 4.701.239 1.308.286 2.404.061 3.742-.33 1.938-1.146 3.778-1.422 5.727-.316 2.27-.168 4.135-1.046 6.273-.073.176-.15.354-.229.53.098.208.201.418.281.659a.544.544 0 0 0-.047.551c.096.32.435.711.608 1.002.454.762.896 1.529 1.343 2.295 1.287 2.204 2.58 4.406 3.87 6.609.394.674.859 1.352 1.208 2.049.264.53.27 1.125.5 1.643.137.141.246.293.295.461a1.653 1.653 0 0 1-.295-.461c-.354-.363-.916-.629-1.258-.807-.933-.482-.352-.124-1.07-.769-.975-.872-1.862-1.85-2.895-2.655-1.371-1.069-2.924-1.838-4.291-2.921-2.085-1.644-4.427-3.136-6.73-4.466-1.191-.688-2.42-.984-3.596-1.744a7.55 7.55 0 0 0-2.916-1.693 23.454 23.454 0 0 1-1.752-.176l2.324-1.357c.036-.136.071-.273.109-.41.58.336.869.948 1.41 1.328.699.494 1.706.886 2.492 1.198 1.426.57 2.782.878 4.271.612.896-.161 2.415-.733 3.651-1.504a21.082 21.082 0 0 0-.113-1.197c-.289-2.236-.773-4.375-1.207-6.583-.457-2.335-1.004-4.585-1.541-6.891-.371-1.571-.251-3.126-.412-4.72-.369-3.636-1.713-7.048-2.344-10.635-.408-2.33-.907-4.685-1.203-7.031-.23-1.847-.15-3.635-.693-5.418-.757-2.48-1.214-5.076-2.062-7.525-1.263-3.666-3.026-7.157-4.345-10.815-.766-2.124-1.363-4.095-2.546-6.058-2.451-4.072-4.733-8.485-8.02-11.957-1.901-2.014-4.15-3.783-6.52-5.304-1.854-1.185-5.903-2.783-7.897-1.075-1.575 1.354-2.308 3.443-1.957 5.417.173.97.17 2.051.394 2.995.147.627.612 1.197.936 1.75.797 1.369 1.672 2.642 2.114 4.169.353 1.222.731 2.459 1.219 3.641.721 1.749 1.59 3.341 2.439 5.011.181.158.372.322.585.502 1.221 1.049 2.034 2.057 3.727 2.303 1.256.182 2.905.494 3.821 1.447.67.697.682 1.359.395 2.203-.242.706-.599 1.224-.984 1.854-.266.427-.449 1.013-.66 1.386-.27.476-.161.5-.847.543-.813.055-1.769-.503-2.521-.921 1.87 4.044 3.752 8.069 4.91 12.393 1.104 4.109 2.891 8.214 3.49 12.437.271 1.919.648 3.688 1.06 5.58.45 2.098.571 4.234 1.024 6.334.467 2.182.883 7.174-1.631 8.459-.691-.583-.538-1.787-.832-2.581a20.248 20.248 0 0 1-.64-1.415c-.29-.941-.737-1.686-1.094-2.623-.959-2.508-2.233-4.979-2.872-7.573-.758-3.067-1.937-6.058-3.215-8.942-1.139-2.559-1.82-5.191-2.971-7.754-1.652-3.682-4.078-7.144-6.116-10.626-1.853-3.165-3.72-6.32-5.556-9.493a31.31 31.31 0 0 0-1.574-2.474c-5.028-.68-9.362 1.549-14.065 2.872-.746.59-1.614.961-2.479 1.387-.504.249-1.746.484-2.082 1.029 1.418 2.428 2.835 4.859 4.274 7.275 1.28 2.156 2.144 4.469 3.425 6.631.775 1.307 1.42 2.526 1.975 3.94.119.101.243.192.383.242.416.16 1.066.031 1.51.075 1.51.141 2.886.49 4.426.372.773-.061 1.944-.347 2.728-.151.624.154.924.68.82 1.201-.05.24-.687 1.317-.808 1.521-.46.764-1.586 1.213-2.377 1.534-1.242.506-2.553.888-3.905.758.116.245.225.487.349.726 1.133 2.223 1.465 4.757 2.693 6.932.912 1.609 1.373 3.226 1.543 5.08.097 1.096.387 2.016.584 3.073.225 1.199.003 2.092-.473 3.017.054.114.107.229.168.316.359.537.879.999 1.385 1.422.952.788 2.073 1.338 3.206 1.665.619.177 1.377.348 1.955.635.914.458 1.707 1.205 2.75 1.462 1.811.448 3.023 1.731 4.599 2.735.604.382 1.142.741 1.644 1.265.418.436 1.619 1.423 1.664 2.018-1.008.396-2.386-.754-3.098-1.336a9.827 9.827 0 0 0-.781-.732c-.668-.342-1.547-.066-2.259-.288a5.576 5.576 0 0 1-1.634-.979c-.912-.566-1.762-.801-2.771-1.073-1.529-.412-3.164-1.129-4.734-1.234-1.457-.096-2.722-.854-4.191-1.033a86.067 86.067 0 0 1-4.259-.609 14.247 14.247 0 0 0-2.967-.219c-.838.015-1.752-.311-2.584-.13-.621.136-.91.468-1.617.434l2.213-3.393c-.012-.006-.018-.006-.024-.013.013-.006.026-.006.038-.012l.121-.184a.524.524 0 0 1 .032.133c.596-.143 1.365.243 1.962.393.838.213 1.66.248 2.523.296 1.027.054 2.607-.204 3.43-.993.084-.08.166-.18.246-.295-.018-.029-.031-.064-.047-.09-.66-1.11-1.402-2.19-1.888-3.389-.736-1.822-1.645-3.407-2.641-5.107-2.151-3.678-4.305-7.357-6.456-11.033-.934-1.591-1.76-3.424-2.938-4.846-1.542-1.863-3.098-3.846-4.28-5.961-.686-1.232-1.559-2.157-2.359-3.291-.29-.41-.58-.689-.883-.95-2.432 4.061-6.71 6.461-11.417 7.231-.219.601-.73 1.245-1.014 1.436-.424.285-1.008.141-1.418.511-.035.03-.057.065-.086.098.059.057.104.115.166.169.701.621 1.053 1.026 1.525 1.83.667 1.137 1.325 2.28 1.992 3.416 1.192 2.037 2.727 4.07 3.665 6.227.523 1.199.689 2.538 1.264 3.744.826 1.728 1.845 3.587 2.323 5.45.684 2.675 1.829 5.284 2.028 8.073.103 1.418.204 2.779.218 4.201.014 1.062.183 1.93.424 2.951.252 1.066.262 2.174.465 3.273.344 1.84-.087 3.838.354 5.627.031.125.066.259.099.381.012.145.016.292.004.451-.054.617.011 1.176.06 1.801.05.629-.104 1.43-.016 2.018.189 1.297 1.051 2.479 1.717 3.617.774 1.325 1.442 2.78 2.623 3.797.537.466 1.096.701 1.598 1.244.397.43.703.818 1.168 1.166 1.445 1.09 2.828 2.293 4.16 3.517.402.366.496.603.953.833.386.191.6.146.943.426.574.461 1.092.924 1.702 1.346 2.075 1.445 3.644 3.307 5.396 5.111 2.326 2.392 4.69 4.656 6.461 7.553.092.15.179.307.268.461-1.277-1.068-2.555-2.129-3.749-3.299-1.04-1.018-2.565-1.627-3.875-2.201-2.98-1.307-5.614-3.145-8.758-3.992-1.369-.368-2.639-1.008-3.935-1.573a10.925 10.925 0 0 1-2.994-1.587l-1.101-.977c-.577-.311-1.046-.256-1.569-.593-.377-.244-.797-.832-1.178-1.124-.117-.089-.218-.201-.326-.305-.133-.005-.266-.016-.414.023-1.039.295-1.58 1.271-2.25 1.968-.406.426-1.123.774-1.668.97-.777.272-1.864 1.035-2.666 1.064-1.448.053-.307-2.062.018-2.776.469-1.02 1.049-1.981 1.539-2.987.434-.896.514-1.304.519-2.236.005-.748.278-1.395.267-2.15a36.833 36.833 0 0 0-.032-1.029c-.323-.852-.603-1.719-.784-2.604-.351-1.714-.208-3.371-.723-5.056-.264-.856-.082-1.646-.264-2.455a1.292 1.292 0 0 0-.332-.653c-.188-.806-.22-1.618-.41-2.437-.172-.748-.471-1.413-.627-2.184l-.004-.026c-.017.027-.025.042-.045.071-.285.461-.145.875-.625 1.262a4.284 4.284 0 0 0-.562.293c-.461.256-.914.536-1.37.804-.62.368-3.441 2.112-3.895 1.019-.218-.529.372-.953.685-1.299.583-.635 1.3-1.375 1.624-2.211.585-1.506.803-3.301 1.202-4.863.345-1.338.181-3.332-.267-4.748-.369-.597-.752-1.188-1.096-1.774-1.039-1.772-1.98-3.56-3.326-5.127-1.37-1.588-2.642-3.062-4.445-4.171-1.308-.805-2.687-1.55-3.981-2.364-1.027-.649-2.369-2.263-3.76-1.935-1.475.35-2.592 2.014-2.809 3.428-.307 1.969-.281 3.957.107 5.851.121.573.037 1.101.16 1.669.148.672.5 1.439.77 2.08.302.721.628 1.463.884 2.193.438 1.238.548 2.668.934 3.918.448 1.449.042 2.482.142 3.945.054.783.369 1.6.458 2.398.134 1.184.23 2.342.267 3.539.076 2.494.42 4.891.187 7.398-.487 5.201-.554 10.36-1.413 15.508-.441 2.635-.037 5.846.463 8.444.507 2.644 1.74 5.456 3.127 7.733 1.561 2.574 3.062 5.191 4.57 7.796 1.508 2.605 3.279 4.896 5.205 7.202 1.698 2.035 3.739 4.262 6.001 5.661a180.398 180.398 0 0 0 6.154 3.668c2.062 1.17 4.22 2.33 6.205 3.641 1.325.569 2.688 1.044 3.98 1.726 1.853.979 4.05 1.193 6.124 1.457.636.078 1.285.129 1.92.219.736.15 1.473.307 2.207.461.674.023 1.348-.005 2.016-.084.745.051 1.059.291 1.836.17.539-.091 1.05-.389 1.585-.282-1.716 1.552-3.796 3.411-6.221 3.726a26.884 26.884 0 0 1-3.476-.043c-2.158-.055-4.359.335-6.507.201a10.053 10.053 0 0 1-1.259-.164c.256 1.718.336 3.453.17 5.186-.348 3.669-.16 7.457-.344 11.156-.189 3.754-.456 7.642-.028 11.387.227 1.989.148 4.076.448 6.038.193 1.267.948 2.284 1.581 3.353a301.727 301.727 0 0 1 2.641 4.53c1.596 2.806 4.234 4.702 6.604 6.827 2.082 1.865 4.253 2.829 6.883 3.678 2.138.69 4.27 1.492 6.499 1.867 1.983.336 3.941.105 5.939.312 1.715.177 3.494.212 5.21.061 4.399-.389 8.786-1.494 13.001-2.783 2.432-.745 4.455-2.07 6.645-3.354 1.232-.718 2.802-1.35 3.902-2.259.426-.355.463-.684.846-.989.828-.659 1.727-.816 2.364-1.771.549-.827.968-1.655 1.288-2.58.432-1.266 1.086-2.259.963-3.682-.143-1.647.041-3.271.092-4.95.077-2.379.004-5.011.966-7.228l.143-.332a21.123 21.123 0 0 1-5.433-1.505c-.433-.185-.703-.417-1.097-.655-.749-.451-1.594-.516-2.376-.873-1.661-.758-2.986-1.878-3.869-3.438-.282-.506-1.6-2.116-1.139-2.542.42.306.627.795 1.062 1.132.892.686 1.943 1.114 2.912 1.686 1.519.9 3.297 1.102 5.072 1.242 1.158.095 2.377.318 3.535.189a36.404 36.404 0 0 0 3.16-.467c.041-.18.098-.36.133-.539.314-1.624.475-1.81 1.277-3.221.505-.881.596-1.813.943-2.701-2.158.113-4.48-.104-6.496-.518-1.283-.269-2.868-.397-4.086-.83-1.139-.408-2.202-1.477-3.223-2.125-1.529-.974-2.137-2.521-3.031-4.053-.505-.855-1.298-1.892-1.592-2.853 1.09.217 2.13 1.177 3.09 1.702 1.654.898 3.451 1.357 5.226 1.932 3.05.994 6.996 1.34 10.226 1.051 1.375-.121 2.606-.859 3.949-1.152.371-.084.762-.154 1.15-.23.317-.428.672-.816 1.107-1.109.649-.443 1.082-.738 1.675-1.385.565-.619 1.53-1.306 1.94-2.035.578-1.027.828-1.448 1.811-2.256 1.334-1.098 2.159-3.645 2.831-5.189.556-1.284 1.567-2.278 2.198-3.549 1.246-2.532 1.888-5.799 2.381-8.572.514-2.848 1.225-5.629 1.816-8.457.701-3.379.486-6.859 1.794-10.105.577-1.449.528-2.779.523-4.328-.009-2.574-.036-5.155-.021-7.729.024-3.396.735-6.727.869-10.113.082-2.134-.158-4.191-.33-6.312-.176-2.15-.336-4.293-.418-6.441zm-42.917 39.92c-1.343-1.732-2.964-3.223-4.5-4.781-1.992-2.019-3.666-4.1-5.45-6.292-1.427-1.755-3.104-3.082-4.607-4.749-1.379-1.527-2.63-3.275-3.776-4.986l-2.446-5.701c.348.594.482.952.985 1.422 1.625 1.506 3.45 2.668 4.952 4.365 4.726 5.327 10.047 10.234 13.758 16.371 1.721 2.855 3.354 5.779 5.02 8.67.992 1.717 2.274 3.177 3.318 4.85 1.427 2.288 2.713 4.677 4.074 7.002-3.372-5.671-7.282-10.961-11.328-16.171zm22.194-1.731a3.507 3.507 0 0 0-.332-.367c-2.47-2.393-5.221-4.525-7.75-6.859a31.983 31.983 0 0 0-3.592-3.141c-1.748-1.307-3.609-2.35-5.217-3.852a224.786 224.786 0 0 0-7.153-6.364c-2.575-2.214-4.804-4.813-7.63-6.717-2.789-1.874-5.621-3.64-8.378-5.55-2.915-2.018-6.107-3.83-9.429-5.068a6.303 6.303 0 0 1-2.713-1.52c-1.854-1.357-3.645-2.662-5.62-3.845l3.765-.421a18.798 18.798 0 0 0-.143-.186c.75.059 1.215.369 1.912.662 3.898 1.645 7.581 3.761 11.409 5.559 8.09 3.794 15.756 7.621 21.9 14.236 2.043 2.201 4.425 4.066 6.457 6.284 2.295 2.5 4.32 5.146 6.203 7.968 2.06 3.089 4.348 6.035 6.311 9.181.301.374.482.74.754 1.199-.238-.408-.504-.799-.754-1.199zM220.032 569.364c.957.589 1.924 1.154 2.887 1.731.924.554 1.849 1.111 2.77 1.662.154-.017.309-.027.461-.061.735-.165 1.381-.646 2.11-.788.766-.145 1.224-.065 1.943-.438.809-.415 1.399-.891 2.021-1.528.432-.439.681-.947 1.07-1.404.231-.272.604-.454.864-.748.282.035.501.243.668.507.231-.243.462-.485.696-.737 2.215-2.377 4.479-4.486 7.215-5.92-1.476-.496-2.96-1.084-4.299-1.859-1.095-.633-2.134-1.115-3.271-1.624-1.297-.575-2.396-1.314-3.781-1.747-3.237-1.007-6.279-2.243-9.628-2.938-1.231-.254-2.718-.717-4.015-.749-.87-.022-1.885.141-2.74.218-1.464.133-2.769.369-4.129.94-1.021.431-1.823 1.123-2.816 1.596-1.403.669-2.013 1.052-2.727 2.456-.81 1.616-.419 2.444.534 3.848.611.902 1.555 1.904 2.357 2.648.785.725 1.652.843 2.613 1.208 1.928.731 3.776 1.73 5.732 2.43 1.233.443 2.346.612 3.465 1.297z"></path></svg>