<svg xmlns="http://www.w3.org/2000/svg" viewBox="0 0 816.019 825.632"><path d="M815.916 383.112c-.474-13.465-4.372-25.656-6.396-38.823-1.329-8.643-1.526-17.517-3.412-26.07-1.404-6.374-2.865-12.588-4.165-18.97-1.954-9.576-3.683-18.651-8.45-27.162-3.624-6.476-5.626-13.589-9.487-19.952-4.412-7.27-8.625-14.64-13.016-21.929-3.998-6.639-7.641-13.572-12.031-19.974-4.293-6.261-9.125-12.157-13.445-18.404-10.009-14.466-19.437-29.835-33.231-41.158-4.398-3.611-9.041-6.615-12.871-10.819-6.189-6.798-11.11-14.804-17.509-21.399-6.486-6.686-14.637-10.565-22.84-14.851-8.454-4.42-15.515-8.698-22.924-14.704-7.569-6.136-14.721-12.693-23.191-17.653-8.046-4.712-16.789-8.51-25.137-12.676-12.106-6.036-23.16-15.148-36.093-19.373-14.687-4.797-28.419-10.655-42.214-17.496-14.209-7.045-29.91-9.085-45.505-11.362-14.924-2.177-29.352-6.747-44.349-8.655-13.669-1.742-29.275-2.456-42.968-.543-6.019.84-12.675 1.417-18.491 3.281-4.007 1.284-7.326 3.759-11.232 5.335-6.189 2.492-12.648 4.294-19.168 5.942-.346.042-.689.089-1.035.128-13.532 1.594-26.215 6.689-38.736 11.999a369.594 369.594 0 0 0-17.352 7.179c-9.262 3.546-18.6 6.134-27.738 10.175a672.113 672.113 0 0 0-42.5 20.623c-8.463 4.486-16.208 9.694-24.338 14.631-7.132 4.332-14.036 6.391-19.883 12.394-12.665 13.007-29.512 21.787-43.291 33.485-7.059 5.991-13.123 13.338-19.512 20-4.585 4.783-6.387 9.648-9.996 14.893-3.828 5.564-8.506 10.731-11.636 16.747-4.079 7.837-7.571 16.083-10.779 24.293-3.65 9.35-7.917 18.184-10.286 27.934-1.97 8.103-6.257 15.2-9.369 22.87-2.425 5.975-3.017 12.534-5.643 18.405-2.432 5.437-4.174 10.972-5.938 16.659-2.665 8.596-3.804 17.177-5.857 25.896-1.337 5.684-1.786 11.493-2.986 17.178-.129.547-.257 1.093-.383 1.638-1.426 5.82-3.807 11.3-6.016 16.862-4.253 10.719-7.627 21.692-8.976 33.156-.863 7.356-1.114 14.708-1.821 22.044-.705 7.286-3.158 13.812-3.278 21.219-.221 13.733-1.075 26.981.43 40.643.969 8.784 1.396 17.624 2.77 26.365.118.746.261 1.495.396 2.241-1.072 6.029-1.278 12.132-.061 18.3 1.597 8.09 1.068 16.026 3.353 24.022 4.138 14.463 7.158 29.194 12.012 43.477 4.863 14.312 10.336 28.68 17.65 41.951 11.002 19.961 21.705 40.579 35.016 59.18 10.11 14.129 20.892 29.355 33.306 41.616 5.809 5.735 12.822 9.235 19.681 13.664 6.719 4.338 13.265 8.923 19.796 13.524 10.819 7.623 22.094 15.325 34.465 20.218 5.328 2.108 10.255 4.788 15.463 7.11 7.091 3.165 14.155 4.582 20.771 8.789 10.788 6.861 23.913 6.299 35.185 12.4 5.634 3.051 10.131 3.939 16.568 5.447 6.658 1.559 13.027 3.927 19.71 5.33 1.635.343 3.273.667 4.916.99 3.897 1.391 7.869 2.602 12.059 3.463 10.03 2.065 20.002 3.304 30.063 4.064 1.315.252 2.631.5 3.942.764 11.376 2.293 23.35 4.799 34.955 5.68 11.041.838 22.232-.461 33.313-.117 9.694.302 19.37-.656 28.791-2.944 9.546-2.318 17.798-4.828 27.722-5.642 11.381-.932 20.506-.654 30.907-5.732 8.732-4.261 16.494-9.424 25.888-12.369 6.322-1.983 12.623-2.96 18.676-5.764 5.458-2.529 10.725-5.535 16.176-8.104 9.641-4.541 19.552-8.677 28.798-13.983 10.403-1.974 20.871-2.75 30.856-7.412 7.174-3.349 12.964-7.643 19.319-12.106 7.715-5.418 16.602-9.058 24.369-14.438 13.318-9.225 22.499-22.063 34.319-32.804 11.207-10.184 22.033-19.928 31.062-32.252 5.689-7.765 11.24-15.416 18.104-22.29 8.758-8.772 19.457-15.803 27.688-25.082 8.847-9.974 16.136-23.849 20.729-36.242 5.76-15.535 11.501-31.874 13.345-48.368 1.674-14.99 4.634-29.677 6.416-44.617.562-4.723 1.311-9.16 1.351-13.936.072-9.105 2.115-17.786 3.118-26.804 1.37-12.3.941-24.929 1.298-37.29.324-11.274 1.179-22.66.783-33.935zM402.648 613.709c-3.672-.082-7.382.11-11.037.101-16.072-.044-31.954 1.477-48.017 1.5-9.496.014-18.877.782-28.256 1.531l-112.619 4.041a9.164 9.164 0 0 0-3.449-1.155c-1.817.057-3.635.111-5.452.166-3.132-.626-4.936-1.85-8.311-1.655-4.553.263-8.691 1.619-13.278 1.567-7.889-.09-15.406.979-23.142 1.422-2.25.129-5.075 1.122-7.836 1.729l-1.696-47.289c-.025-15.76-.118-31.523.004-47.282.036-4.593-.441-8.725-1.161-13.265-.999-6.305-.358-13.049-.304-19.4.061-7.035-.607-12.886-2.105-19.445l-1.409-39.278c.288-4.031.506-8.061.48-12.099-.066-10.307-.461-20.758-.072-31.047.162-4.284 1.358-8.171 1.612-12.365.276-4.56-.035-9.243-.035-13.814v-23.161c0-6.564 1.148-14.297.078-20.708-.82-4.907-2.993-9.237-3.112-14.222a56.746 56.746 0 0 1-.009-1.983c4.646 2.857 9.863 6.096 15.545 9.65 19.292 12.067 43.934 27.75 70.019 44.47 39.13 25.082 81.519 52.504 114.118 73.652a35643.892 35643.892 0 0 1 51.336 33.368l3.028 1.973 1.042.679 8.372 5.46 186.904-127.24 63.267-58.088c.414 3.888.886 7.778.888 11.785.008 13.049.909 25.754 1.428 38.715.461 11.524 4.942 22.861 5.846 34.467.883 11.347.307 22.922.191 34.3-.154 15.26 1.608 30.49 1.54 45.803-.036 8.198 1.273 16.111 1.572 24.259.357 9.705-.077 19.55-.077 29.258 0 27.269-.184 54.546.035 81.814a65.947 65.947 0 0 1-.091 3.815h-.04c-19.525.455-38.976 4.219-58.506 4.607-6.744.134-13.516-.035-20.262-.035-9.274 0-19.255-1.24-28.398.299-14.155 2.384-28.155 5.772-42.571 5.696-15.894-.085-30.487 1.84-46.021 4.915-.938.186-1.878.32-2.816.435l-57.223 2.054zm224.168-354.251l-61.614 56.571L396.62 430.793c-20.051-13.055-73.202-47.622-127.267-82.444-34.274-22.075-68.904-44.246-95.741-61.129a3336.63 3336.63 0 0 0-17.398-10.878l470.602-16.884z"></path></svg>