<svg xmlns="http://www.w3.org/2000/svg" viewBox="0 0 595.28 841.89"><path d="M403.719 429.473c-.938 2.167-1.611 4.546-2.521 6.695-.455 1.077-.453 2.259-1.224 3.242-.643.821-1.518 1.427-2.134 2.317-.792 1.148-1.747 1.965-2.636 3.026-.775.926-1.568 1.882-2.496 2.646-4.848 3.994-11.274 4.435-17.321 3.579-2.698-.382-5.762-1.095-7.97-2.715-2.523-1.854-4.751-3.433-6.813-5.82-3.753-4.345-8.014-8.372-9.5-14.128-.674-2.61-1.058-5.306-1.865-7.88-.441-1.405-1.13-2.817-1.171-4.321-.062-2.307.131-4.804.494-7.088.516-3.239 1.04-6.377 1.83-9.565.76-3.066 1.871-6.053 2.533-9.135.812-3.773 2.249-7.835 3.838-11.39.978-2.189 2.018-4.353 3.036-6.518.1-.212.182-.432.263-.652 1.153-1.872 2.707-4.214 4.794-7.137l.175-.184c2.124-2.267 4.252-4.248 6.025-6.832 1.082-1.574 1.928-3.255 3.17-4.715 1.216-1.43 2.66-2.337 4.023-3.582 1.756-1.603 2.559-3.825 3.848-5.77 1.041-1.568 2.089-3.128 3.123-4.694a963.265 963.265 0 0 1 8.689-10.187c38.91-45 18.424-93 10.09-106.333S393.91 200 393.91 200v-3.999c0-.711.005-1.422.001-2.133-.004-.713.14-1.267.249-1.96.14-.887.121-1.824.287-2.697.113-.428.266-.842.458-1.241a23.25 23.25 0 0 0 .51-1.833c.145-.418.354-.745.503-1.14a.986.986 0 0 1 .142-.492c.222-.38.81-.603 1.114-.928.252-.249.454-.533.605-.854.708-1.488 1.605-2.896 2.087-4.49.385-1.271.857-2.468 1.312-3.714.242-.665.461-1.118.487-1.81.025-.652.022-1.335.008-1.985-.032-1.476-.185-2.965-.25-4.441-.078-1.782-.513-3.971-1.77-5.301-.575-.609-1.299-1.01-1.982-1.483-.905-.627-1.791-.984-2.893-1.004-1.628-.03-3.089.312-4.618.811-2.006.654-3.949 1.785-5.722 2.908-1.144.725-2.293 1.674-3.279 2.594-.419.39-.846.6-1.282.972-.816.696-1.215 1.232-2.387 1.243-.259.002-.562 0-.823-.017-.731-.048-1.379-.314-2.062-.568-1.714-.637-3.29-1.4-5.072-1.871-1.223-.323-2.196-1.215-3.33-1.766-.872-.424-1.721-.566-2.694-.557-1.458.015-2.917.012-4.375.006-1.319-.005-2.513.315-3.768.493-1.388.197-2.652.404-4.005.757-1.339.35-2.64.582-3.877 1.238-.678.36-1.466.777-2.073 1.25-.55.426-.936 1.043-1.501 1.456-.307.225-.693.388-1 .613-.281.206-.476.513-.751.712-.521.375-1.13.222-1.754.23-1.284.017-2.321-1.024-3.494-1.442-.669-.239-1.296-.537-2.014-.562-.593-.021-1.194.006-1.787.006-.732 0-1.467.011-2.199.001-.632-.009-.982.199-1.557.437-.763.314-1.699.344-2.396.8-.316.208-.551.527-.848.762-.346.274-.858.436-1.164.75-.235.242-.292.533-.523.764-.247.247-.538.245-.776.523-.225.262-.344.826-.48 1.145-.187.435-.417.845-.638 1.262-.841 1.592-.121 3.463-.119 5.161.001.851-.117 1.717.177 2.509.323.873.769 1.7 1.129 2.554.695 1.646 1.649 2.979 2.818 4.332.457.529.953 1.017 1.431 1.488.606.597.729 1.286 1.195 1.97.446.654.759.969.749 1.792-.006.519.001 1.039.001 1.558 0 1.998-.266 4.191.237 6.129.197.76.313 1.622.542 2.362.182.584.744 1.134.99 1.715.199.469.31 1.006.51 1.465.299.684.881 1.139 1.247 1.777.294.512.405 1.112.698 1.62.354.612.949 1.076 1.364 1.649.557.771 1.235 1.36 1.867 2.05.691.754 1.144 1.728 1.843 2.48.961 1.036 1.734 2.179 2.575 3.323.712.969 1.581 1.615 1.987 2.728.228.625.635 1.057.907 1.642.217.464.304.993.419 1.488.221.956.421 1.877.568 2.807a689.46 689.46 0 0 0 .009 7.473c.023 3.145-1.062 5.819-1.811 8.803l-.068.09c-.669.931-1.213 2.053-1.929 2.869-.626.713-1.588 1.438-2.333 2.036-2.111 1.69-4.315 2.47-6.919 1.367-1.89-.8-4.194-1.673-5.696-3.133-1.19-1.158-1.983-2.381-3.34-3.302-.743-.506-1.473-1.324-2.236-1.875-3.934-2.837-8.546-5.117-11.942-8.765-.66-.708-1.211-1.397-1.811-2.159-.487-.619-1.138-1.043-1.572-1.652.09-4.711.224-9.426.419-14.149.646.712 1.278 1.439 2.072 2.007 2.586 1.853 5.687 2.761 8.092 4.873 1.312 1.153 2.503 2.08 3.925 3.115 1.896 1.382 3.363 3.179 5.277 4.553 1.946 1.396 4.412 1.975 6.342 3.381 1.338.975 2.892 1.778 4.498 2.393.527.202 1.035.423 1.554.633-.324-4.151-1.601-8.33-2.974-12.076-.145-.394-.294-.788-.44-1.182-2.137-4.352-4.517-8.643-6.755-12.979a19.013 19.013 0 0 0-1.655-.709c-1.762-.657-3.225-2.077-4.806-2.58-1.309-.416-2.457-.684-3.772-1.363-1.433-.739-2.702-1.624-4.062-2.461-1.415-.871-3.117-.978-4.42-1.948-.72-.535-1.329-1.043-1.963-1.524.615-8.225 1.465-16.479 2.65-24.779 7-43-3-85-5.153-126.506-.273-4.302-.473-8.357-.682-12.413A2282.183 2282.183 0 0 0 302.14 0h-8.999c.9 14.032 1.665 28.063 2.309 42.095.173 2.245.31 4.391.481 6.644C299 93 310 136 302 182c-2.513 13.318-3.888 26.509-4.62 39.623-1.482-.415-3.514-.769-4.667-.545-.99.192-2.588 1.018-2.976 1.979-.326.802-.301 2.099-.417 2.969-.202 1.504-.503 1.648-1.868 2.246-1.212.529-1.239 1.038-1.363 2.321-.139 1.438.284 1.797 1.278 2.582.632.499 1.444.974 1.036 1.816-.383.792-1.732.883-2.327 1.531-.649.709-.603 1.581-.755 2.551-.188 1.199-.438 2.597.434 3.644.61.735 1.881 1.266 2.661 1.884 2.029 1.606 4.264 2.831 6.526 4.136.528.305 1.109.569 1.68.848-.094 19.749.484 39.396.026 59.105a29.81 29.81 0 0 0-1.899.143c-1.81.207-3.315 1.182-4.86 2.126a48.77 48.77 0 0 0-2.658 1.748c-.63.445-1.2 1.041-.833 2.053.637 1.753 3.489.42 4.682 1.113 2.721 1.581-1.701 3.053-2.667 3.775-.465.346-1.225.828-1.326 1.546-.104.748.545 1.605.639 2.412 1.463.347 3.286-.633 4.574.229 1.748 1.17-.072 2.155-1.275 2.587-2.036.728-2.458 2.329-.953 4.181.983 1.21 1.339 1.427 2.848 1.346.87-.046 1.739-.081 2.609-.12a331.46 331.46 0 0 1-.528 6.173c-2.763 29.408-4.552 58.738-5.659 88.011-.511 4.146-.718 6.778-.963 9.619-4.169 46.794-8.104 92.765-3.146 139.482-.094.071-.178.14-.276.213-1.303.97-3.005 1.077-4.42 1.948-1.359.837-2.629 1.722-4.062 2.461-1.315.68-2.464.947-3.772 1.363-1.581.502-3.044 1.923-4.806 2.58-.583.217-1.13.455-1.655.709-2.238 4.336-4.618 8.627-6.755 12.979-.146.395-.296.789-.44 1.183-1.373 3.747-2.649 7.925-2.974 12.076.519-.21 1.026-.432 1.554-.634 1.606-.615 3.16-1.418 4.499-2.393 1.93-1.406 4.396-1.986 6.342-3.381 1.914-1.375 3.382-3.172 5.278-4.554 1.422-1.036 2.613-1.962 3.925-3.115 2.405-2.112 5.506-3.021 8.092-4.873.529-.378.984-.829 1.422-1.297a342.619 342.619 0 0 0 1.975 11.827c-.186.443-.453.864-.731 1.37-.049.089-.116.161-.174.242-.435.609-1.085 1.033-1.572 1.652-.6.762-1.15 1.451-1.811 2.159-3.396 3.647-8.009 5.928-11.943 8.765-.764.551-1.493 1.369-2.237 1.875-1.356.921-2.149 2.144-3.34 3.302-1.502 1.46-3.807 2.333-5.696 3.133-2.604 1.103-4.808.323-6.919-1.367-.745-.598-1.707-1.323-2.333-2.036-.716-.816-1.26-1.938-1.929-2.869l-.068-.091c-.748-2.983-1.834-5.658-1.811-8.803.019-2.49.017-4.982.009-7.473.147-.93.348-1.852.568-2.807.115-.495.202-1.023.419-1.488.272-.584.68-1.018.907-1.642.406-1.112 1.276-1.759 1.988-2.728.841-1.145 1.614-2.287 2.575-3.323.699-.753 1.151-1.727 1.843-2.48.632-.69 1.311-1.28 1.867-2.05.415-.574 1.01-1.037 1.364-1.649.293-.508.404-1.108.698-1.62.367-.639.949-1.093 1.248-1.777.2-.459.311-.996.51-1.465.246-.582.809-1.131.99-1.715.229-.74.345-1.603.542-2.362.503-1.938.237-4.132.237-6.129 0-.519.007-1.038.001-1.558-.01-.823.303-1.139.749-1.793.467-.684.589-1.373 1.195-1.97.478-.472.974-.96 1.431-1.488 1.169-1.354 2.123-2.686 2.818-4.332.36-.854.806-1.681 1.129-2.554.294-.793.176-1.658.177-2.51.002-1.697.722-3.568-.119-5.16-.221-.417-.451-.827-.638-1.262-.137-.318-.256-.883-.481-1.145-.238-.278-.529-.276-.776-.523-.231-.23-.288-.521-.523-.764-.306-.314-.818-.477-1.164-.75-.297-.235-.531-.555-.848-.762-.696-.457-1.633-.486-2.396-.801-.574-.237-.925-.445-1.557-.437-.732.01-1.467-.001-2.199-.001-.593 0-1.195-.027-1.788-.006-.718.025-1.345.324-2.014.562-1.173.418-2.21 1.459-3.494 1.442-.624-.009-1.233.146-1.754-.23-.275-.198-.47-.506-.751-.712-.307-.225-.694-.389-1-.613-.565-.413-.951-1.029-1.501-1.456-.607-.472-1.396-.89-2.073-1.249-1.237-.656-2.538-.889-3.877-1.238-1.353-.354-2.618-.561-4.005-.758-1.255-.177-2.448-.498-3.768-.492-1.458.006-2.917.009-4.375-.006-.974-.01-1.822.133-2.694.557-1.134.551-2.107 1.443-3.33 1.766-1.782.471-3.358 1.234-5.073 1.871-.683.254-1.33.521-2.062.568-.261.018-.564.02-.823.018-1.172-.012-1.57-.547-2.387-1.244-.437-.371-.863-.582-1.282-.971-.986-.92-2.136-1.87-3.279-2.595-1.772-1.123-3.716-2.254-5.722-2.908-1.529-.499-2.99-.841-4.618-.811-1.102.021-1.987.377-2.893 1.004-.684.474-1.407.874-1.982 1.483-1.257 1.33-1.691 3.52-1.77 5.301-.065 1.477-.218 2.966-.25 4.441a32.05 32.05 0 0 0 .008 1.985c.026.692.245 1.146.487 1.81.454 1.247.927 2.443 1.312 3.715.481 1.594 1.379 3.002 2.087 4.49a3 3 0 0 0 .605.854c.305.324.893.548 1.114.928a.98.98 0 0 1 .142.492c.149.395.358.721.503 1.139.145.619.314 1.229.51 1.834.192.398.345.812.458 1.24.166.873.147 1.811.287 2.697.109.693.253 1.246.249 1.96-.004.711.001 1.422.001 2.133v3.999s-1.756 9-10.09 22.334c-8.334 13.332-28.82 61.332 10.09 106.332a941.42 941.42 0 0 1 8.689 10.188c1.034 1.566 2.082 3.126 3.123 4.694 1.289 1.944 2.092 4.167 3.848 5.77 1.363 1.245 2.808 2.152 4.023 3.582 1.243 1.46 2.088 3.141 3.17 4.715 1.773 2.584 3.901 4.565 6.025 6.832l.175.184c2.087 2.923 3.641 5.265 4.794 7.137.081.22.163.44.263.652 1.019 2.165 2.059 4.328 3.036 6.518 1.589 3.555 3.026 7.616 3.838 11.39.662 3.082 1.773 6.068 2.533 9.135.79 3.188 1.314 6.326 1.83 9.565.363 2.284.557 4.781.494 7.088-.041 1.504-.729 2.916-1.171 4.321-.808 2.574-1.191 5.27-1.865 7.88-1.486 5.756-5.748 9.783-9.5 14.128-2.062 2.388-4.291 3.966-6.814 5.82-2.208 1.62-5.271 2.333-7.97 2.715-6.047.855-12.474.415-17.321-3.579-.928-.764-1.721-1.72-2.496-2.646-.889-1.062-1.844-1.878-2.636-3.026-.616-.891-1.491-1.496-2.134-2.317-.771-.983-.769-2.165-1.224-3.242-.909-2.149-1.582-4.528-2.521-6.695-.396-.913-1.639-1.951-2.624-1.046-.814.749-.585 2.617-.433 3.558.315 1.964.622 3.935.895 5.905.291 2.1 1.461 4.113 2.771 5.775 1.561 1.977 3.45 3.722 4.953 5.733.516.692.745 1.319 1.359 1.892.892.832 1.973 1.672 2.93 2.478 1.483 1.251 2.795 2.483 4.555 3.355 1.063.526 1.549 1.204 2.672 1.352 1.854.245 3.493 1.047 5.164 1.63 1.913.666 3.262-.346 5.189-.29.997.028 1.741.249 2.799.005 1.053-.243 1.989-.902 3.065-1.039 1.255-.159.735.198 1.988-.655.88-.601 1.605-.545 2.517-1.131l.938-.696c.297-.043.595-.053.895-.033a15.683 15.683 0 0 0 1.782-1.258 2.374 2.374 0 0 1 1.522-.395c1.792-.725 3.417-2.092 5.032-3.11 1.04-.657 2.208-1.16 3.245-1.856 1.115-.748 1.85-1.451 2.637-2.548.957-1.333 2.257-2.171 3.146-3.513.757-1.141 1.698-2.234 2.404-3.408.685-1.141 1.107-2.164 2.021-3.191 1.006-1.13 1.057-2.053 1.605-3.254.735-1.613 1.887-2.809 2.393-4.559.345-1.188.618-2.41.961-3.57.414-1.402.434-2.171.315-3.677-.339-4.291.136-8.756-.418-13.022-.923-7.124-2.164-14.228-3.245-21.33-.913-5.994-2.451-11.562-5.096-16.914-1.049-2.125-1.879-4.166-2.971-6.174-.393-.72-.569-1.486-.946-2.263-.491-1.009-1.108-1.688-1.339-2.915-.174-.917-1.228-4.843-.4-5.845.167.242.33.493.512.711.517.244.934.629 1.255 1.154.34.552.617 1.376.903 1.943.473.941.979 1.856 1.611 2.728 1.554 2.135 4.372 4.878 6.799 3.179a10.397 10.397 0 0 1 2.91-1.394c1.126-.323 1.527-.702 2.504-1.386a6.47 6.47 0 0 0 1.032-.511c.822-.56 1.181-1.443 1.878-2.121a18.207 18.207 0 0 1 2.964-2.311c1.554-.945 3.194-1.851 4.684-2.929 1.71-1.236 3.102-2.998 4.802-4.232 3.128-2.272 5.979-4.811 8.804-7.558.867-.844 1.537-1.813 2.343-2.673.417-.447.809-.734 1.213-1.061 1.607 15.678 3.022 31.437 3.323 47.669a2959.362 2959.362 0 0 1-.187 23.059c.047 4.011.211 8.02.385 12.028a2326.737 2326.737 0 0 0 2.577 48.108h8.999a2333.745 2333.745 0 0 1-2.577-48.108 721.136 721.136 0 0 1-.445-12.027c-.039-4.585.157-9.086.399-13.567.12-2.241.253-4.478.373-6.704.86-18.961-2.536-37.63-4.116-55.771.989.046 1.978.093 2.967.137.869.039 1.739.074 2.61.12 1.508.081 1.864-.136 2.848-1.346 1.504-1.852 1.083-3.453-.953-4.181-1.203-.432-3.023-1.417-1.275-2.587 1.288-.862 3.111.118 4.574-.229.094-.807.743-1.664.639-2.412-.102-.719-.861-1.2-1.326-1.546-.967-.723-5.39-2.195-2.668-3.775 1.193-.693 4.046.641 4.683-1.113.367-1.012-.202-1.608-.833-2.053a49.342 49.342 0 0 0-2.657-1.748c-1.545-.944-3.051-1.92-4.861-2.126a30.503 30.503 0 0 0-1.899-.144c-.876-.042-1.754-.062-2.631-.082.646-19.887 6.274-40.297 5.938-60.79 1.709-.986 3.378-1.99 4.926-3.216.78-.618 2.051-1.148 2.661-1.884.872-1.047.621-2.444.434-3.644-.152-.97-.105-1.842-.755-2.551-.595-.648-1.944-.739-2.327-1.531-.408-.843.404-1.317 1.036-1.816.994-.785 1.417-1.144 1.278-2.582-.125-1.283-.151-1.792-1.363-2.321-1.365-.598-1.666-.742-1.868-2.246-.116-.87-.091-2.167-.417-2.969-.388-.961-1.985-1.786-2.976-1.979-.964-.187-2.538.031-3.895.35-7.6-51.846-7.004-102.265.047-153.886.307-3.165.573-6.113 1.432-12.021 1.08-29.472 2.653-58.982 4.859-88.541.202-2.265.378-4.525.543-6.783.695.754 1.361 1.549 2.044 2.225.651.646 1.221.946 1.853 1.623.806.859 1.476 1.829 2.343 2.673 2.824 2.747 5.676 5.285 8.804 7.558 1.7 1.234 3.092 2.996 4.802 4.232 1.489 1.078 3.13 1.983 4.684 2.929.97.591 2.113 1.483 2.964 2.311.697.678 1.057 1.562 1.878 2.121.332.203.675.373 1.032.511.977.684 1.378 1.062 2.504 1.385.971.279 2.065.803 2.91 1.394 2.428 1.699 5.245-1.044 6.799-3.179.633-.871 1.139-1.786 1.611-2.727.286-.568.563-1.392.903-1.944.321-.525.738-.91 1.255-1.154.182-.218.345-.468.512-.711.827 1.002-.227 4.927-.4 5.845-.23 1.227-.848 1.906-1.339 2.915-.377.776-.554 1.543-.946 2.263-1.092 2.008-1.922 4.049-2.971 6.174-2.645 5.352-4.183 10.92-5.096 16.914-1.081 7.103-2.322 14.206-3.245 21.33-.554 4.267-.079 8.731-.418 13.022-.118 1.506-.099 2.274.315 3.677.343 1.16.616 2.383.961 3.57.506 1.75 1.657 2.945 2.393 4.559.549 1.201.6 2.124 1.605 3.254.914 1.027 1.336 2.051 2.021 3.191.706 1.174 1.647 2.268 2.404 3.408.889 1.342 2.188 2.18 3.146 3.513.787 1.097 1.521 1.8 2.637 2.548 1.036.696 2.204 1.199 3.244 1.856 1.615 1.019 3.24 2.386 5.032 3.11a2.371 2.371 0 0 1 1.522.395c.564.461 1.158.88 1.781 1.258.3-.02.598-.01.895.033l.938.696c.911.586 1.637.53 2.517 1.131 1.253.854.733.496 1.988.655 1.076.137 2.012.796 3.064 1.039 1.058.244 1.802.023 2.799-.005 1.928-.056 3.276.956 5.189.29 1.671-.583 3.31-1.385 5.164-1.63 1.123-.147 1.608-.825 2.672-1.352 1.76-.872 3.071-2.104 4.555-3.355.957-.806 2.038-1.646 2.93-2.478.614-.572.844-1.199 1.359-1.892 1.503-2.012 3.393-3.757 4.953-5.733 1.311-1.662 2.48-3.676 2.771-5.775.272-1.971.579-3.941.895-5.905.152-.94.382-2.809-.433-3.558-.987-.906-2.229.133-2.625 1.046zM212.196 554.268c3.837-5.548 11.913-2.972 16.416.615.141.111.282.207.421.303 1.083.5 2.066.838 2.997 1.052 1.925.125 3.919-.558 6.245-.739.362-.028.718-.039 1.07-.042 3.694-1.28 7.544-1.273 10.947 1.618 5.181 4.401 6.697 14.275.167 17.884a5.124 5.124 0 0 1-.744.325c-2.004 1.504-4.604 2.44-6.884 3.279-3.473 1.277-4.13 3.641-6.238 6.068-.434.788-.957 1.552-1.542 2.092-.57.525-1.361 1.296-2.022 1.722-.489.313-.594.146-1.09.292-.33.096-.362.277-.667.42-1.374.652-3.885.216-5.419.234-1.504.018-3.43-.745-4.714-1.62-.839-.571-1.74-1.149-2.287-1.954-.211-.308-.446-.63-.533-.982a42.345 42.345 0 0 0-.006-.504c-.83-1.238-1.409-2.568-1.69-4.176-.253-1.44-.258-2.792-.226-4.248.038-1.736-2.271-3.871-3.23-5.275-3.633-5.308-4.535-11.204-.971-16.364zm69.81 136.445c-2.154 1.975-4.64 3.493-6.769 5.557-.55.531-1.025 1.293-1.599 1.793-.77.67-1.603 1.143-2.322 1.887-.895.923-1.704 1.906-2.693 2.646a20.882 20.882 0 0 0-1.964 1.64c-.848.805-1.056.91-2.095 1.151-.347.079-.53.31-1.002.356-.429.043-1.434.09-1.832-.061-.823-.31-1.483-1.835-2.13-2.525-.03-.032-.056-.063-.085-.096.23-1.845.529-3.666 1.043-5.447-.019-.135-.031-.275-.052-.408-.231-1.504-.143-2.583-.08-4.031.061-1.36-.478-2.983-.685-4.349-.17-1.119-.534-2.356-.415-3.477.183-1.704-.1-3.257-.366-5.013-.214-1.41-.183-3.146-.652-4.469-.605-1.714-1.401-3.531-2.178-5.18-1.048-2.226-2.719-4.328-4.121-6.353-1.504-2.174-4.096-4.95-6.435-6.146-1.34-.685-2.134-1.867-3.509-2.464-.498-.216-1.225-.551-1.651-.873a6.044 6.044 0 0 1-.729-.829 6.246 6.246 0 0 0-.896-.062l-1.001-.329c-.698.254-1.14.777-1.696 1.326-.668.659-1.444 1.056-2.187 1.604-1.018.752-1.955 1.595-2.913 2.407-1.325 1.125-1.689 2.398-2.452 3.838-.4.757-.972 1.387-1.227 2.221-.265.866-.669 1.582-1.007 2.427-.396.988-.496 2.106-.779 3.134-.295 1.069-.53 2.154-.772 3.238.063-1.424.268-2.856.259-4.276-.009-1.433-.145-2.836.307-4.184.418-1.247.672-2.577.951-3.853.103-.467.177-.939.349-1.41.199-.549.625-.96.83-1.485.234-.6.234-1.259.496-1.848.157-.354.415-.681.519-1.058.172-.623.24-2.062.013-2.688-.116-.319-.505-.619-.664-.945-.08-.202-.156-.405-.229-.609-.2-.555-.431-1.087-.638-1.638-.409-1.087-.424-2.153-.743-3.262-.195-.681-.438-1.511-.438-2.301 0-.504-.154-.778-.264-1.252-.11-.478-.011-.738-.237-1.248-.292-.656-.452-1.673-.986-2.202-.174-.173-.512-.381-.707-.555a.47.47 0 0 0-.294-.313c-.438-.304-.783-.484-1.199-.868-.382-.353-.801-.614-1.111-1.031-.361-.482-.563-1.055-.939-1.531-.329-.417-.768-.717-1.038-1.194a2.838 2.838 0 0 1-.285-.755c-.205-.388-.481-.758-.72-1.127-.94-1.447-2.295-3.271-2.236-5.09.85.886 1.68 1.771 2.521 2.676.964 1.037 1.986 2.101 3.065 3.016 1.133.961 2.396 1.725 3.473 2.754 1.403 1.341 2.433 2.693 4.245 3.402.673.264 1.308.423 1.901.873.442.336.802.636 1.312.883.145.07.266.137.38.205.22.104.44.203.65.323.407.232 1.21.601 1.567.898.549.461.656.988 1.303 1.348 2.105 1.168 4.346 2.256 6.506 3.552.484.289.66.608 1.241.839.573.227 1.065.317 1.62.612a17.72 17.72 0 0 1 2.672 1.758c3.374 2.691 6.053 5.513 10.461 6.048 1.187.145 1.371-.881 2.324-1.218.569-.201 1.092.015 1.702-.173 1.749-.535 2.85-1.805 4.062-3.174 2.021-2.283 4.827-3.367 6.643-5.819 1.105-1.493 2.242-2.823 3.465-4.195.921-1.032 2.106-1.888 3.109-2.849 1.187-1.136 2.247-2.547 3.521-3.603 1.757-1.455 3.203-3.005 4.905-4.463.018-.014.033-.029.05-.044.818-.698 1.468-1.43 2.221-2.135.568-.53 1.722-.79 2.334-1.185.141-.091.262-.203.392-.306.357 7.062-.208 14.07-1.172 21.042-2.416 1.276-5.565 2.969-5.992 3.135-1.423.551-2.593 1.521-3.708 2.324-1.424 1.025-2.653 2.227-3.806 3.398-1.459 1.482-3.45 2.795-5.277 4.055-.431.405-.911.781-1.438 1.128-.624.404-1.343.683-2.157.837-.512.254-.902.459-1.373.805-1.069 1.761-2.053 3.545-2.562 5.584.228.305.44.619.54.992.233.881.157 1.68-.253 2.525-.167.346-.368.68-.571 1.012.379 3.146 1.891 6.111 4.092 8.388.638-.39 1.195-1.028 1.65-1.359a29.757 29.757 0 0 1 4.339-2.64c1.176-.578 2.147-1.386 3.324-1.926a18.292 18.292 0 0 0 1.641-.435 16.097 16.097 0 0 0 3.199-1.366c1.405-.728 2.814-1.478 4.222-2.205-.779 4.643-1.449 9.275-1.86 13.903l-.609.404c-1.515 1.011-2.292 2.765-3.619 3.986zm6.444-20.383c.16-1.503.483-3.254.91-5.119a632.63 632.63 0 0 0-.91 5.119zm56.103-469.068a5.077 5.077 0 0 1-.744-.325c-6.529-3.609-5.014-13.482.167-17.884 3.402-2.892 7.253-2.899 10.946-1.618.353.002.708.014 1.07.042 2.326.182 4.32.864 6.245.739.931-.214 1.913-.551 2.996-1.052.139-.096.28-.19.421-.302 4.503-3.587 12.578-6.163 16.415-.615 3.563 5.159 2.662 11.056-.97 16.362-.96 1.405-3.269 3.54-3.23 5.276.032 1.456.027 2.807-.226 4.247-.281 1.608-.86 2.938-1.69 4.177a42.43 42.43 0 0 0-.006.503c-.087.353-.322.675-.533.982-.547.804-1.447 1.383-2.286 1.954-1.284.875-3.21 1.637-4.714 1.62-1.534-.019-4.046.418-5.419-.234-.305-.143-.337-.324-.667-.42-.496-.146-.601.022-1.09-.292-.661-.426-1.452-1.196-2.022-1.722-.585-.54-1.108-1.304-1.542-2.092-2.107-2.427-2.765-4.792-6.237-6.069-2.28-.837-4.88-1.774-6.884-3.277zm4.139 82.906c-2.339 1.195-4.931 3.972-6.435 6.146-1.402 2.024-3.073 4.127-4.121 6.353-.776 1.648-1.572 3.466-2.178 5.18-.47 1.323-.438 3.059-.652 4.469-.267 1.756-.549 3.309-.366 5.013.119 1.12-.245 2.357-.415 3.477-.207 1.365-.745 2.988-.685 4.349.062 1.448.151 2.527-.08 4.031-.021.133-.033.273-.052.408.514 1.781.812 3.603 1.043 5.448l-.085.096c-.647.69-1.308 2.215-2.13 2.525-.398.15-1.403.103-1.832.06-.472-.047-.655-.277-1.002-.356-1.039-.241-1.247-.347-2.095-1.151a20.882 20.882 0 0 0-1.964-1.64c-.989-.739-1.798-1.723-2.692-2.646-.72-.744-1.553-1.216-2.322-1.886-.573-.5-1.049-1.262-1.599-1.793-2.129-2.063-4.615-3.581-6.769-5.557-1.327-1.22-2.104-2.974-3.616-3.981-1.059-.705-2.027-1.306-2.944-2.261.11-4.065.184-8.123.229-12.175 1.49.766 2.981 1.563 4.468 2.333.979.554 2.044 1.01 3.198 1.366.534.169 1.082.314 1.641.434 1.177.541 2.148 1.348 3.324 1.926a29.757 29.757 0 0 1 4.339 2.64c.454.331 1.012.969 1.649 1.359 2.201-2.276 3.713-5.241 4.092-8.388a11.779 11.779 0 0 1-.571-1.012c-.41-.846-.486-1.644-.253-2.524.1-.374.312-.688.54-.993-.509-2.039-1.492-3.823-2.562-5.584-.471-.345-.861-.551-1.373-.805-.813-.153-1.532-.432-2.156-.836a10.644 10.644 0 0 1-1.438-1.127c-1.827-1.26-3.818-2.573-5.277-4.055-1.153-1.171-2.382-2.374-3.806-3.398-1.115-.803-2.285-1.773-3.708-2.325-.672-.26-1.354-.278-2.026-.527l-.034-.014c-.029-6.66-.079-13.313-.106-19.967 1.702 1.458 3.148 3.008 4.905 4.463 1.274 1.056 2.334 2.467 3.521 3.603 1.003.961 2.188 1.816 3.109 2.849 1.223 1.372 2.359 2.702 3.465 4.195 1.816 2.452 4.621 3.536 6.643 5.819 1.213 1.369 2.313 2.639 4.062 3.174.61.188 1.133-.028 1.702.173.952.337 1.137 1.362 2.323 1.218 4.408-.535 7.088-3.356 10.461-6.048a17.797 17.797 0 0 1 2.672-1.758c.555-.295 1.047-.386 1.62-.612.581-.23.757-.55 1.241-.839 2.16-1.296 4.4-2.384 6.506-3.552.646-.359.754-.887 1.303-1.348.357-.298 1.16-.666 1.567-.898.21-.12.431-.22.65-.323.114-.068.235-.135.38-.205.51-.247.869-.546 1.312-.883.593-.45 1.228-.609 1.9-.873 1.812-.71 2.842-2.062 4.245-3.403 1.077-1.029 2.34-1.793 3.473-2.754 1.078-.915 2.101-1.978 3.064-3.015.841-.904 1.671-1.79 2.521-2.675.059 1.817-1.296 3.643-2.236 5.09-.238.368-.515.739-.72 1.126-.06.265-.154.517-.285.755-.271.477-.709.777-1.038 1.194-.376.476-.578 1.049-.938 1.532-.311.417-.729.678-1.111 1.031-.416.384-.762.564-1.199.868a.472.472 0 0 0-.294.313c-.195.174-.533.382-.707.555-.534.53-.694 1.546-.986 2.203-.227.51-.127.771-.237 1.248-.109.473-.264.748-.264 1.252-.001.79-.243 1.62-.438 2.301-.319 1.109-.334 2.174-.743 3.262-.207.551-.438 1.083-.638 1.637-.073.205-.149.408-.229.61-.159.326-.548.626-.664.945-.228.625-.159 2.064.013 2.688.104.377.361.704.519 1.058.262.588.262 1.248.496 1.848.205.525.631.937.83 1.485.172.471.246.943.349 1.41.279 1.275.533 2.605.951 3.853.451 1.348.315 2.75.307 4.184-.009 1.42.195 2.853.259 4.276-.242-1.083-.478-2.168-.772-3.237-.283-1.028-.384-2.146-.779-3.134-.338-.845-.742-1.561-1.007-2.427-.255-.833-.826-1.463-1.227-2.22-.763-1.439-1.127-2.712-2.451-3.837-.958-.813-1.896-1.656-2.913-2.408-.742-.549-1.519-.945-2.187-1.604-.557-.549-.998-1.072-1.696-1.327a160.5 160.5 0 0 0-1.001.329c-.301-.001-.6.019-.896.062a6.044 6.044 0 0 1-.729.829c-.426.322-1.152.657-1.65.873-1.379.59-2.173 1.772-3.513 2.457z"></path><path d="M284.569 279.88c-1.609.674-2.521 2.893-2.635 4.51-.068.969-.404 2.046.362 2.688.779.655 2.085.545 2.969 1.094-.125.52-.889 1.122-1.164 1.708-.415.883-.902 2.151-.027 3.023 1.256 1.259 5.167 1.9 6.851 1.287 1.854-.674 1.72-2.26 1.785-3.865.041-.996.178-1.969.042-2.968-.215-1.599-1.239-2.884-1.29-4.502-.042-1.317-.097-3.226.181-4.476.151-.689.491-1.225.625-1.926.218-1.136.07-2.491.114-3.647l.21-5.496c-.593.608-1.177-.067-1.839-.11-1.237-.082-3.195.44-4.341.838-2.396.83-3.611 2.276-4.664 4.485-.566 1.192-1.625 3.529-1.124 4.874.551 1.473 3.587.981 3.945 2.483zM282.494 185.661c.014 1.022.249 1.974.556 2.943.845 2.67 2.16 5.313 3.819 7.577 1.443 1.969 2.568 4.074 3.95 6.067a57.708 57.708 0 0 1 2.05 3.202c.361-.419.662-.877.849-1.358.162-.416.472-.905.544-1.343.146-.879-.081-1.858-.018-2.749.069-.98.709-1.807 1.068-2.694.144-.356.42-.549.632-.856.264-.381.312-1.005.305-1.451-.01-.666-.004-1.333.001-1.998.004-.59-.175-.951-.264-1.501-.075-.461.007-1.03-.292-1.45-.326-.458-.622-.421-.261-1.063.243-.434.665-.706 1.004-1.05.471-.478.547-.958.568-1.624.04-1.229.172-2.667-.257-3.811a5.875 5.875 0 0 0-.811-1.453c-.239-.315-.766-.487-.962-.786-.365-.556.497-1.121.781-1.56.613-.948.975-2.543 1.012-3.659.042-1.266.108-2.208-.646-3.25-.336-.464-.801-.882-1.358-1.051-1.051-.319-2.156-.23-3.276-.244-.345-.004-.693-.043-1.032.037-.485.115-.857.508-1.336.658-.95.298-1.674.77-2.376 1.486-.855.873-1.746 1.658-2.443 2.683-.443.651-.706 1.343-1.061 2.04-.302.592-.585.917-.701 1.616-.208 1.252-.037 2.649-.038 3.915-.001.909-.019 1.819-.007 2.727z"></path><circle cx="374.173" cy="187.576" r="4.136"></circle><circle cx="351.084" cy="191.712" r="4.137"></circle><path d="M359.703 199.781c.321.661.779 1.003 1.482 1.127.534.095 1.184-.16 1.7.021.491.173.727.742 1.077 1.09.401.398.666.875.981 1.334.207.303.137.648.137 1.01 0 .254.073.631.007.873-.061.223-.307.52-.439.718a1.55 1.55 0 0 1-.414.427c-.318.114-.641.234-.972.34-.284.05-.565.094-.813.204-.021.009-.045.015-.066.024-.537.1-1.116.243-1.631.473-.312.14-.514.436-.717.689-.275.341-.312.456-.297.901.02.559.338 1.343.87 1.598.401.191.54.036.891-.05.308-.076.673.072.985.015.16-.029.267-.148.429-.164.221-.021.286.077.509.019.396-.104.826-.299 1.233-.411.251-.069.452-.075.711-.169.226-.082.452-.218.692-.263.341-.063.696-.142 1.035-.176.759-.079 1.561.108 2.309-.029.404-.074.794-.193 1.194-.264.36-.064.762-.006 1.131-.065.34-.055.556-.19.825-.401.293-.228.312-.31.321-.675.009-.367.127-.99-.174-1.276-.243-.231-.635-.313-.949-.321-.347-.009-.698.021-1.045.007-.377-.016-.442-.158-.751-.26-.306-.101-.572-.062-.801-.353-.148-.19-.179-.455-.177-.69a6.217 6.217 0 0 0-.288-2.027c-.199-.667-.467-1.597-.297-2.309.068-.287.269-.728.44-.978.245-.353.38-.649.571-1.035.156-.318.462-.52.562-.865.054-.187.024-.384.021-.574-.009-.425.069-.864-.099-1.266-.156-.373-.518-.749-.879-.944-.31-.167-.683-.102-1.051-.103-.595-.001-1.31.183-1.692.711-.218.3-.271.708-.497 1.019-.202.277-.48.526-.833.585-.643.108-1.343-.316-1.948-.479-.69-.187-1.636-.444-2.352-.22-.457.143-1.129.643-1.188 1.122-.032.272-.01.594.035.859.07.382.066.879.222 1.201zM307.856 642.06c-1.145-.397-3.104-.92-4.34-.838-.662.043-1.246.719-1.84.11l.211 5.496c.043 1.156-.104 2.512.113 3.647.134.701.474 1.236.625 1.926.277 1.25.223 3.158.181 4.476-.051 1.618-1.074 2.903-1.29 4.502-.135.999.002 1.972.043 2.968.064 1.605-.07 3.191 1.785 3.865 1.684.613 5.595-.028 6.851-1.287.876-.872.388-2.141-.026-3.023-.275-.586-1.039-1.188-1.164-1.708.884-.549 2.189-.438 2.969-1.094.766-.643.43-1.72.361-2.688-.113-1.617-1.025-3.836-2.635-4.51.357-1.502 3.395-1.01 3.944-2.482.501-1.345-.558-3.682-1.124-4.874-1.052-2.21-2.267-3.656-4.664-4.486zM300.006 576.771c.073.438.383.928.545 1.344.187.48.489.938.85 1.357a58.296 58.296 0 0 1 2.05-3.202c1.383-1.993 2.508-4.099 3.951-6.067 1.658-2.264 2.974-4.906 3.818-7.577.307-.97.542-1.921.556-2.943.012-.908-.005-1.818-.006-2.727-.001-1.265.171-2.662-.038-3.915-.115-.698-.398-1.023-.701-1.615-.354-.697-.617-1.389-1.061-2.04-.697-1.024-1.588-1.81-2.443-2.683-.702-.717-1.426-1.188-2.376-1.486-.479-.15-.851-.543-1.337-.658-.338-.08-.686-.041-1.031-.037-1.12.014-2.226-.075-3.277.244-.557.168-1.022.586-1.358 1.051-.755 1.041-.689 1.983-.646 3.249.037 1.116.398 2.712 1.012 3.659.284.439 1.146 1.004.781 1.56-.196.299-.722.472-.962.786-.334.441-.62.945-.811 1.453-.43 1.143-.297 2.581-.257 3.811.021.666.098 1.146.568 1.624.34.345.761.616 1.005 1.05.359.643.064.605-.262 1.063-.299.42-.217.989-.292 1.45-.089.551-.269.91-.264 1.501.005.665.011 1.333.001 1.998-.007.446.041 1.07.305 1.451.212.308.488.501.632.856.359.887.999 1.714 1.068 2.694.061.891-.165 1.871-.02 2.749z"></path><circle cx="220.092" cy="561.598" r="4.137"></circle><circle cx="243.183" cy="565.734" r="4.136"></circle><path d="M224.299 571.893c.101.344.406.547.562.864.191.386.326.683.571 1.035.172.251.372.69.44.978.17.713-.098 1.643-.297 2.31a6.207 6.207 0 0 0-.288 2.026c.002.236-.028.5-.177.69-.229.291-.495.252-.801.353-.309.103-.374.244-.751.26-.347.016-.698-.016-1.045-.006-.314.008-.706.09-.949.32-.301.287-.183.91-.174 1.277.01.365.028.447.321.674.27.211.485.346.825.401.369.06.771.001 1.131.065.4.07.79.189 1.194.264.748.137 1.55-.051 2.309.028.339.034.694.112 1.035.177.24.045.467.181.692.263.259.095.46.101.711.169.407.112.837.309 1.233.412.223.059.289-.041.509-.02.162.016.269.135.429.164.312.058.678-.09.985-.015.351.085.489.241.891.05.532-.254.851-1.039.87-1.598.016-.445-.021-.561-.297-.901-.203-.254-.405-.55-.717-.689-.515-.229-1.094-.373-1.631-.474-.021-.008-.045-.014-.066-.023-.248-.109-.529-.154-.813-.203-.332-.107-.654-.227-.972-.341a1.55 1.55 0 0 1-.414-.427c-.133-.199-.379-.495-.439-.719-.066-.241.007-.619.007-.873 0-.361-.07-.707.137-1.01.315-.459.58-.936.981-1.334.351-.349.586-.918 1.078-1.09.517-.182 1.166.072 1.7-.021.703-.125 1.161-.467 1.482-1.127.156-.322.152-.818.218-1.199.045-.266.067-.588.035-.859-.059-.479-.73-.98-1.188-1.123-.716-.225-1.661.033-2.352.221-.606.163-1.306.588-1.949.479-.353-.059-.631-.307-.833-.584-.227-.312-.279-.719-.497-1.02-.383-.529-1.098-.713-1.692-.711-.368 0-.741-.065-1.051.102-.361.196-.723.572-.879.945-.168.401-.09.841-.099 1.266 0 .189-.029.386.025.574z"></path></svg>