<svg xmlns="http://www.w3.org/2000/svg" viewBox="0 0 595.28 841.89"><path d="M289.724 11.049c-7.392 0-14.588.837-21.501 2.417l-.244-.953-3.615-10.845h-4.066s1.325 5.191 3.328 12.97c-40.365 11.371-69.954 48.46-69.954 92.462 0 4.355.295 8.642.856 12.842 1.098-2.856 2.544-5.557 4.463-8.016 9.244-11.844 24.709-14.755 37.198-7.51-3.773-12.147-10.211-44.815 15.694-76.877 0 0-23.586 37.93-12.514 75.617 3.387-8.759 9.68-16.638 19.162-19.051 6.556-1.668 12.957-.864 18.82 1.602-5.207-23.256-9.781-63.665-9.781-63.665l18.119 75.675c8.769 32.668 12.666 50.749 15.864 58.864 5.872 14.912 15.814 21.916 25.755 17.849 9.941-4.067 20.333-21.69 5.422-32.986l-2.712 4.518s10.608 15.55-5.954 23.038c-21.164 9.569-26.041-49.403-31.012-63.411-1.394-3.928-10.185-28.729 13.99-35.471 9.298-2.594 18.916 3.536 26.918 8.42-15.11-48.559-54.587-58.437-54.587-58.437 41.153 8.793 53.833 42.025 57.168 54.357 2.624-7.743 7.923-13.983 16.277-16.714 6.42-2.098 13.015-2.027 19.247-.122-16.803-27.904-47.392-46.573-82.341-46.573zM305.147 224.413c7.391 0 14.586.837 21.498 2.418l.247-.953 3.612-10.845h4.067s-1.325 5.191-3.327 12.97c40.364 11.371 69.954 48.461 69.954 92.466 0 4.355-.296 8.642-.858 12.843-1.097-2.858-2.543-5.557-4.462-8.016-9.244-11.846-24.709-14.756-37.199-7.511 3.775-12.148 10.213-44.817-15.694-76.88 0 0 23.587 37.93 12.515 75.62-3.387-8.759-9.68-16.639-19.161-19.051-6.558-1.668-12.958-.864-18.82 1.601 5.206-23.257 9.781-63.667 9.781-63.667l-18.119 75.678c-8.768 32.67-12.665 50.75-15.863 58.866-5.873 14.911-15.814 21.917-25.755 17.848-9.941-4.066-20.333-21.69-5.422-32.985l2.712 4.519s-10.609 15.548 5.953 23.038c21.165 9.569 26.041-49.405 31.012-63.412 1.394-3.928 10.185-28.73-13.989-35.474-9.298-2.593-18.917 3.537-26.919 8.421 15.111-48.561 54.587-58.438 54.587-58.438-41.153 8.793-53.832 42.027-57.167 54.359-2.624-7.744-7.923-13.985-16.278-16.716-6.419-2.098-13.014-2.026-19.246-.121 16.803-27.909 47.391-46.578 82.341-46.578zM318.98 435.797a101.854 101.854 0 0 0-22.895.602l-.172-1.026-2.829-11.766-4.289-.369s.927 5.597 2.335 13.98c-43.603 8.339-78.169 44.779-82.154 91.19a102.43 102.43 0 0 0-.258 13.623c1.416-2.916 3.185-5.632 5.433-8.052 10.821-11.655 27.396-13.325 39.913-4.553-2.881-13.153-6.712-48.192 23.515-79.665 0 0-28.312 37.872-20.047 78.625 4.364-8.932 11.716-16.673 21.936-18.358 7.064-1.165 13.743.261 19.702 3.393-3.383-24.999-4.55-68.036-4.55-68.036l12.257 81.458c6.288 35.253 8.764 54.675 11.398 63.522 4.847 16.26 14.696 24.548 25.55 21.157 10.853-3.388 23.409-21.035 8.705-34.299l-3.27 4.521s9.782 17.361-8.364 23.757c-23.191 8.177-22.992-54.464-26.966-69.687-1.116-4.27-8.141-31.227 17.966-36.148 10.042-1.893 19.633 5.443 27.63 11.319-11.54-52.585-52.28-66.577-52.28-66.577 42.608 13.001 52.97 49.203 55.37 62.509 3.469-7.93 9.623-14.032 18.682-16.154 6.961-1.633 13.911-.961 20.312 1.613-15.197-30.956-45.768-53.416-82.63-56.579zM311.639 652.604a101.896 101.896 0 0 1 21.695 7.336l.469-.929 6.179-10.405 4.206.914s-2.538 5.072-6.361 12.668c39.193 20.845 61.454 65.87 51.552 111.388a102.398 102.398 0 0 1-3.776 13.09c-.492-3.202-1.379-6.32-2.812-9.296-6.896-14.331-22.237-20.823-36.787-16.139 6.638-11.715 20.648-44.061 1.066-83.057 0 0 15.861 44.545-4.072 81.038-1.531-9.823-6.269-19.389-15.533-24.019-6.407-3.2-13.208-3.811-19.826-2.578 10.616-22.886 24.444-63.657 24.444-63.657l-35.771 74.204c-16.421 31.821-24.522 49.646-29.653 57.32-9.435 14.103-21.292 19.111-30.659 12.665-9.368-6.442-16.151-27.01 1.814-35.339l1.787 5.285s-14.473 13.696.975 25.17c19.741 14.66 38.054-45.243 46.347-58.614 2.327-3.749 17-27.428-6.486-39.841-9.035-4.774-20.364-.6-29.741 2.652 26.558-46.829 69.613-48.163 69.613-48.163-44.547-.165-65.139 31.36-71.363 43.363-.971-8.601-5.049-16.249-13.075-20.951-6.17-3.617-13.007-5.027-19.883-4.458 23.659-25.088 59.5-37.515 95.651-29.647z"></path></svg>